<mxfile host="app.diagrams.net" modified="2023-08-23T15:57:00.253Z" agent="Mozilla/5.0 (Windows NT 10.0; Win64; x64) AppleWebKit/537.36 (KHTML, like Gecko) Chrome/114.0.0.0 Safari/537.36" etag="hwqn2S29PXAG7GGhQQUq" version="21.6.9" type="device">
  <diagram id="C5RBs43oDa-KdzZeNtuy" name="Page-1">
    <mxGraphModel dx="2022" dy="735" grid="1" gridSize="10" guides="1" tooltips="1" connect="1" arrows="1" fold="1" page="1" pageScale="1" pageWidth="827" pageHeight="1169" math="0" shadow="0">
      <root>
        <mxCell id="WIyWlLk6GJQsqaUBKTNV-0" />
        <mxCell id="WIyWlLk6GJQsqaUBKTNV-1" parent="WIyWlLk6GJQsqaUBKTNV-0" />
        <mxCell id="6s5vhWPi2oBte4bEisQO-0" value="Patients" style="swimlane;fontStyle=0;childLayout=stackLayout;horizontal=1;startSize=26;fillColor=none;horizontalStack=0;resizeParent=1;resizeParentMax=0;resizeLast=0;collapsible=1;marginBottom=0;whiteSpace=wrap;html=1;" parent="WIyWlLk6GJQsqaUBKTNV-1" vertex="1">
          <mxGeometry x="10" y="1538" width="195" height="130" as="geometry" />
        </mxCell>
        <mxCell id="6s5vhWPi2oBte4bEisQO-121" value="insuranceMemberID: string" style="text;strokeColor=none;fillColor=none;align=left;verticalAlign=top;spacingLeft=4;spacingRight=4;overflow=hidden;rotatable=0;points=[[0,0.5],[1,0.5]];portConstraint=eastwest;whiteSpace=wrap;html=1;" parent="6s5vhWPi2oBte4bEisQO-0" vertex="1">
          <mxGeometry y="26" width="195" height="26" as="geometry" />
        </mxCell>
        <mxCell id="ZfSKOzxZ88lNqSnVztVK-0" value="insurancePlan: string" style="text;strokeColor=none;fillColor=none;align=left;verticalAlign=top;spacingLeft=4;spacingRight=4;overflow=hidden;rotatable=0;points=[[0,0.5],[1,0.5]];portConstraint=eastwest;whiteSpace=wrap;html=1;" parent="6s5vhWPi2oBte4bEisQO-0" vertex="1">
          <mxGeometry y="52" width="195" height="26" as="geometry" />
        </mxCell>
        <mxCell id="6s5vhWPi2oBte4bEisQO-18" value="deductibleProgress: string" style="text;strokeColor=none;fillColor=none;align=left;verticalAlign=top;spacingLeft=4;spacingRight=4;overflow=hidden;rotatable=0;points=[[0,0.5],[1,0.5]];portConstraint=eastwest;whiteSpace=wrap;html=1;" parent="6s5vhWPi2oBte4bEisQO-0" vertex="1">
          <mxGeometry y="78" width="195" height="26" as="geometry" />
        </mxCell>
        <mxCell id="6s5vhWPi2oBte4bEisQO-139" value="patientStatus: string [FK]" style="text;strokeColor=none;fillColor=none;align=left;verticalAlign=top;spacingLeft=4;spacingRight=4;overflow=hidden;rotatable=0;points=[[0,0.5],[1,0.5]];portConstraint=eastwest;whiteSpace=wrap;html=1;" parent="6s5vhWPi2oBte4bEisQO-0" vertex="1">
          <mxGeometry y="104" width="195" height="26" as="geometry" />
        </mxCell>
        <mxCell id="6s5vhWPi2oBte4bEisQO-4" value="Address" style="swimlane;fontStyle=0;childLayout=stackLayout;horizontal=1;startSize=26;fillColor=none;horizontalStack=0;resizeParent=1;resizeParentMax=0;resizeLast=0;collapsible=1;marginBottom=0;whiteSpace=wrap;html=1;strokeColor=#000000;" parent="WIyWlLk6GJQsqaUBKTNV-1" vertex="1">
          <mxGeometry x="780" y="1738" width="140" height="260" as="geometry" />
        </mxCell>
        <mxCell id="6s5vhWPi2oBte4bEisQO-5" value="addressID: string [PK]" style="text;strokeColor=none;fillColor=none;align=left;verticalAlign=top;spacingLeft=4;spacingRight=4;overflow=hidden;rotatable=0;points=[[0,0.5],[1,0.5]];portConstraint=eastwest;whiteSpace=wrap;html=1;" parent="6s5vhWPi2oBte4bEisQO-4" vertex="1">
          <mxGeometry y="26" width="140" height="26" as="geometry" />
        </mxCell>
        <mxCell id="XNJbn17Z0ETbCCURGHxT-27" value="&lt;font color=&quot;#3399ff&quot;&gt;label: string&lt;/font&gt;" style="text;strokeColor=none;fillColor=none;align=left;verticalAlign=top;spacingLeft=4;spacingRight=4;overflow=hidden;rotatable=0;points=[[0,0.5],[1,0.5]];portConstraint=eastwest;whiteSpace=wrap;html=1;" parent="6s5vhWPi2oBte4bEisQO-4" vertex="1">
          <mxGeometry y="52" width="140" height="26" as="geometry" />
        </mxCell>
        <mxCell id="_RMVuCj_aNO2bqz8egUr-25" value="&lt;font color=&quot;#3399ff&quot;&gt;phoneNumber: string&lt;/font&gt;" style="text;strokeColor=none;fillColor=none;align=left;verticalAlign=top;spacingLeft=4;spacingRight=4;overflow=hidden;rotatable=0;points=[[0,0.5],[1,0.5]];portConstraint=eastwest;whiteSpace=wrap;html=1;" parent="6s5vhWPi2oBte4bEisQO-4" vertex="1">
          <mxGeometry y="78" width="140" height="26" as="geometry" />
        </mxCell>
        <mxCell id="6s5vhWPi2oBte4bEisQO-6" value="line1: string" style="text;strokeColor=none;fillColor=none;align=left;verticalAlign=top;spacingLeft=4;spacingRight=4;overflow=hidden;rotatable=0;points=[[0,0.5],[1,0.5]];portConstraint=eastwest;whiteSpace=wrap;html=1;" parent="6s5vhWPi2oBte4bEisQO-4" vertex="1">
          <mxGeometry y="104" width="140" height="26" as="geometry" />
        </mxCell>
        <mxCell id="6s5vhWPi2oBte4bEisQO-7" value="line2: string" style="text;strokeColor=none;fillColor=none;align=left;verticalAlign=top;spacingLeft=4;spacingRight=4;overflow=hidden;rotatable=0;points=[[0,0.5],[1,0.5]];portConstraint=eastwest;whiteSpace=wrap;html=1;" parent="6s5vhWPi2oBte4bEisQO-4" vertex="1">
          <mxGeometry y="130" width="140" height="26" as="geometry" />
        </mxCell>
        <mxCell id="6s5vhWPi2oBte4bEisQO-8" value="city: string" style="text;strokeColor=none;fillColor=none;align=left;verticalAlign=top;spacingLeft=4;spacingRight=4;overflow=hidden;rotatable=0;points=[[0,0.5],[1,0.5]];portConstraint=eastwest;whiteSpace=wrap;html=1;" parent="6s5vhWPi2oBte4bEisQO-4" vertex="1">
          <mxGeometry y="156" width="140" height="26" as="geometry" />
        </mxCell>
        <mxCell id="6s5vhWPi2oBte4bEisQO-9" value="region: string" style="text;strokeColor=none;fillColor=none;align=left;verticalAlign=top;spacingLeft=4;spacingRight=4;overflow=hidden;rotatable=0;points=[[0,0.5],[1,0.5]];portConstraint=eastwest;whiteSpace=wrap;html=1;" parent="6s5vhWPi2oBte4bEisQO-4" vertex="1">
          <mxGeometry y="182" width="140" height="26" as="geometry" />
        </mxCell>
        <mxCell id="6s5vhWPi2oBte4bEisQO-10" value="postalCode: string" style="text;strokeColor=none;fillColor=none;align=left;verticalAlign=top;spacingLeft=4;spacingRight=4;overflow=hidden;rotatable=0;points=[[0,0.5],[1,0.5]];portConstraint=eastwest;whiteSpace=wrap;html=1;" parent="6s5vhWPi2oBte4bEisQO-4" vertex="1">
          <mxGeometry y="208" width="140" height="26" as="geometry" />
        </mxCell>
        <mxCell id="6s5vhWPi2oBte4bEisQO-11" value="country: string" style="text;strokeColor=none;fillColor=none;align=left;verticalAlign=top;spacingLeft=4;spacingRight=4;overflow=hidden;rotatable=0;points=[[0,0.5],[1,0.5]];portConstraint=eastwest;whiteSpace=wrap;html=1;" parent="6s5vhWPi2oBte4bEisQO-4" vertex="1">
          <mxGeometry y="234" width="140" height="26" as="geometry" />
        </mxCell>
        <mxCell id="6s5vhWPi2oBte4bEisQO-23" value="[SUM_OF_CODES]: &lt;br&gt;If xray was C_X001 and &lt;br&gt;&quot;fix bone&quot; was C_FB01&lt;br&gt;and the steps for a broken arm were just &quot;get an xray&quot; and &quot;fix the bone&quot; the procedure code for that would be C_X001_FB01" style="html=1;whiteSpace=wrap;strokeColor=#00FF00;" parent="WIyWlLk6GJQsqaUBKTNV-1" vertex="1">
          <mxGeometry x="950" y="1278.5" width="160" height="141" as="geometry" />
        </mxCell>
        <mxCell id="6s5vhWPi2oBte4bEisQO-26" value="" style="endArrow=none;html=1;rounded=0;exitX=1;exitY=0.5;exitDx=0;exitDy=0;strokeColor=#33FF99;" parent="WIyWlLk6GJQsqaUBKTNV-1" source="6s5vhWPi2oBte4bEisQO-22" target="6s5vhWPi2oBte4bEisQO-23" edge="1">
          <mxGeometry width="50" height="50" relative="1" as="geometry">
            <mxPoint x="670" y="400" as="sourcePoint" />
            <mxPoint x="730" y="400" as="targetPoint" />
          </mxGeometry>
        </mxCell>
        <mxCell id="6s5vhWPi2oBte4bEisQO-31" value="Procedure Supply Requirements" style="swimlane;fontStyle=0;childLayout=stackLayout;horizontal=1;startSize=26;horizontalStack=0;resizeParent=1;resizeParentMax=0;resizeLast=0;collapsible=1;marginBottom=0;whiteSpace=wrap;html=1;strokeColor=#FF9999;" parent="WIyWlLk6GJQsqaUBKTNV-1" vertex="1">
          <mxGeometry x="1160" y="1650" width="200" height="234" as="geometry" />
        </mxCell>
        <mxCell id="6s5vhWPi2oBte4bEisQO-32" value="supplyID: string [PK]" style="text;strokeColor=none;fillColor=none;align=left;verticalAlign=top;spacingLeft=4;spacingRight=4;overflow=hidden;rotatable=0;points=[[0,0.5],[1,0.5]];portConstraint=eastwest;whiteSpace=wrap;html=1;" parent="6s5vhWPi2oBte4bEisQO-31" vertex="1">
          <mxGeometry y="26" width="200" height="26" as="geometry" />
        </mxCell>
        <mxCell id="6s5vhWPi2oBte4bEisQO-33" value="supplyCode: string" style="text;strokeColor=none;fillColor=none;align=left;verticalAlign=top;spacingLeft=4;spacingRight=4;overflow=hidden;rotatable=0;points=[[0,0.5],[1,0.5]];portConstraint=eastwest;whiteSpace=wrap;html=1;" parent="6s5vhWPi2oBte4bEisQO-31" vertex="1">
          <mxGeometry y="52" width="200" height="26" as="geometry" />
        </mxCell>
        <mxCell id="6s5vhWPi2oBte4bEisQO-34" value="procedureCode: string [FK]" style="text;strokeColor=none;fillColor=none;align=left;verticalAlign=top;spacingLeft=4;spacingRight=4;overflow=hidden;rotatable=0;points=[[0,0.5],[1,0.5]];portConstraint=eastwest;whiteSpace=wrap;html=1;" parent="6s5vhWPi2oBte4bEisQO-31" vertex="1">
          <mxGeometry y="78" width="200" height="26" as="geometry" />
        </mxCell>
        <mxCell id="6s5vhWPi2oBte4bEisQO-35" value="item: string" style="text;strokeColor=none;fillColor=none;align=left;verticalAlign=top;spacingLeft=4;spacingRight=4;overflow=hidden;rotatable=0;points=[[0,0.5],[1,0.5]];portConstraint=eastwest;whiteSpace=wrap;html=1;" parent="6s5vhWPi2oBte4bEisQO-31" vertex="1">
          <mxGeometry y="104" width="200" height="26" as="geometry" />
        </mxCell>
        <mxCell id="6s5vhWPi2oBte4bEisQO-145" value="description: string" style="text;strokeColor=none;fillColor=none;align=left;verticalAlign=top;spacingLeft=4;spacingRight=4;overflow=hidden;rotatable=0;points=[[0,0.5],[1,0.5]];portConstraint=eastwest;whiteSpace=wrap;html=1;" parent="6s5vhWPi2oBte4bEisQO-31" vertex="1">
          <mxGeometry y="130" width="200" height="26" as="geometry" />
        </mxCell>
        <mxCell id="6s5vhWPi2oBte4bEisQO-36" value="quantity: int" style="text;strokeColor=none;fillColor=none;align=left;verticalAlign=top;spacingLeft=4;spacingRight=4;overflow=hidden;rotatable=0;points=[[0,0.5],[1,0.5]];portConstraint=eastwest;whiteSpace=wrap;html=1;" parent="6s5vhWPi2oBte4bEisQO-31" vertex="1">
          <mxGeometry y="156" width="200" height="26" as="geometry" />
        </mxCell>
        <mxCell id="6s5vhWPi2oBte4bEisQO-37" value="quantityUnit: string" style="text;strokeColor=none;fillColor=none;align=left;verticalAlign=top;spacingLeft=4;spacingRight=4;overflow=hidden;rotatable=0;points=[[0,0.5],[1,0.5]];portConstraint=eastwest;whiteSpace=wrap;html=1;" parent="6s5vhWPi2oBte4bEisQO-31" vertex="1">
          <mxGeometry y="182" width="200" height="26" as="geometry" />
        </mxCell>
        <mxCell id="6s5vhWPi2oBte4bEisQO-38" value="unitPrice: float" style="text;strokeColor=none;fillColor=none;align=left;verticalAlign=top;spacingLeft=4;spacingRight=4;overflow=hidden;rotatable=0;points=[[0,0.5],[1,0.5]];portConstraint=eastwest;whiteSpace=wrap;html=1;" parent="6s5vhWPi2oBte4bEisQO-31" vertex="1">
          <mxGeometry y="208" width="200" height="26" as="geometry" />
        </mxCell>
        <mxCell id="6s5vhWPi2oBte4bEisQO-40" value="Role Supply Requirements" style="swimlane;fontStyle=0;childLayout=stackLayout;horizontal=1;startSize=26;horizontalStack=0;resizeParent=1;resizeParentMax=0;resizeLast=0;collapsible=1;marginBottom=0;whiteSpace=wrap;html=1;strokeColor=#FF9999;" parent="WIyWlLk6GJQsqaUBKTNV-1" vertex="1">
          <mxGeometry x="1170" y="1258" width="180" height="234" as="geometry" />
        </mxCell>
        <mxCell id="6s5vhWPi2oBte4bEisQO-41" value="requirementID: string [PK]" style="text;strokeColor=none;fillColor=none;align=left;verticalAlign=top;spacingLeft=4;spacingRight=4;overflow=hidden;rotatable=0;points=[[0,0.5],[1,0.5]];portConstraint=eastwest;whiteSpace=wrap;html=1;" parent="6s5vhWPi2oBte4bEisQO-40" vertex="1">
          <mxGeometry y="26" width="180" height="26" as="geometry" />
        </mxCell>
        <mxCell id="6s5vhWPi2oBte4bEisQO-42" value="roleCode: string" style="text;strokeColor=none;fillColor=none;align=left;verticalAlign=top;spacingLeft=4;spacingRight=4;overflow=hidden;rotatable=0;points=[[0,0.5],[1,0.5]];portConstraint=eastwest;whiteSpace=wrap;html=1;" parent="6s5vhWPi2oBte4bEisQO-40" vertex="1">
          <mxGeometry y="52" width="180" height="26" as="geometry" />
        </mxCell>
        <mxCell id="6s5vhWPi2oBte4bEisQO-43" value="procedureCode: string [FK]" style="text;strokeColor=none;fillColor=none;align=left;verticalAlign=top;spacingLeft=4;spacingRight=4;overflow=hidden;rotatable=0;points=[[0,0.5],[1,0.5]];portConstraint=eastwest;whiteSpace=wrap;html=1;" parent="6s5vhWPi2oBte4bEisQO-40" vertex="1">
          <mxGeometry y="78" width="180" height="26" as="geometry" />
        </mxCell>
        <mxCell id="6s5vhWPi2oBte4bEisQO-44" value="requiredRole: string [FK]" style="text;strokeColor=none;fillColor=none;align=left;verticalAlign=top;spacingLeft=4;spacingRight=4;overflow=hidden;rotatable=0;points=[[0,0.5],[1,0.5]];portConstraint=eastwest;whiteSpace=wrap;html=1;" parent="6s5vhWPi2oBte4bEisQO-40" vertex="1">
          <mxGeometry y="104" width="180" height="26" as="geometry" />
        </mxCell>
        <mxCell id="6s5vhWPi2oBte4bEisQO-46" value="requiredDescription: string" style="text;strokeColor=none;fillColor=none;align=left;verticalAlign=top;spacingLeft=4;spacingRight=4;overflow=hidden;rotatable=0;points=[[0,0.5],[1,0.5]];portConstraint=eastwest;whiteSpace=wrap;html=1;" parent="6s5vhWPi2oBte4bEisQO-40" vertex="1">
          <mxGeometry y="130" width="180" height="26" as="geometry" />
        </mxCell>
        <mxCell id="6s5vhWPi2oBte4bEisQO-52" value="isOptional: bool" style="text;strokeColor=none;fillColor=none;align=left;verticalAlign=top;spacingLeft=4;spacingRight=4;overflow=hidden;rotatable=0;points=[[0,0.5],[1,0.5]];portConstraint=eastwest;whiteSpace=wrap;html=1;" parent="6s5vhWPi2oBte4bEisQO-40" vertex="1">
          <mxGeometry y="156" width="180" height="26" as="geometry" />
        </mxCell>
        <mxCell id="6s5vhWPi2oBte4bEisQO-45" value="quantity: int" style="text;strokeColor=none;fillColor=none;align=left;verticalAlign=top;spacingLeft=4;spacingRight=4;overflow=hidden;rotatable=0;points=[[0,0.5],[1,0.5]];portConstraint=eastwest;whiteSpace=wrap;html=1;" parent="6s5vhWPi2oBte4bEisQO-40" vertex="1">
          <mxGeometry y="182" width="180" height="26" as="geometry" />
        </mxCell>
        <mxCell id="6s5vhWPi2oBte4bEisQO-47" value="cost: float" style="text;strokeColor=none;fillColor=none;align=left;verticalAlign=top;spacingLeft=4;spacingRight=4;overflow=hidden;rotatable=0;points=[[0,0.5],[1,0.5]];portConstraint=eastwest;whiteSpace=wrap;html=1;" parent="6s5vhWPi2oBte4bEisQO-40" vertex="1">
          <mxGeometry y="208" width="180" height="26" as="geometry" />
        </mxCell>
        <mxCell id="6s5vhWPi2oBte4bEisQO-54" value="Roles" style="swimlane;fontStyle=0;childLayout=stackLayout;horizontal=1;startSize=26;fillColor=none;horizontalStack=0;resizeParent=1;resizeParentMax=0;resizeLast=0;collapsible=1;marginBottom=0;whiteSpace=wrap;html=1;" parent="WIyWlLk6GJQsqaUBKTNV-1" vertex="1">
          <mxGeometry x="1170" y="1520" width="180" height="104" as="geometry" />
        </mxCell>
        <mxCell id="6s5vhWPi2oBte4bEisQO-55" value="roleID: string [PK]" style="text;strokeColor=none;fillColor=none;align=left;verticalAlign=top;spacingLeft=4;spacingRight=4;overflow=hidden;rotatable=0;points=[[0,0.5],[1,0.5]];portConstraint=eastwest;whiteSpace=wrap;html=1;" parent="6s5vhWPi2oBte4bEisQO-54" vertex="1">
          <mxGeometry y="26" width="180" height="26" as="geometry" />
        </mxCell>
        <mxCell id="6s5vhWPi2oBte4bEisQO-56" value="title: string" style="text;strokeColor=none;fillColor=none;align=left;verticalAlign=top;spacingLeft=4;spacingRight=4;overflow=hidden;rotatable=0;points=[[0,0.5],[1,0.5]];portConstraint=eastwest;whiteSpace=wrap;html=1;" parent="6s5vhWPi2oBte4bEisQO-54" vertex="1">
          <mxGeometry y="52" width="180" height="26" as="geometry" />
        </mxCell>
        <mxCell id="6s5vhWPi2oBte4bEisQO-57" value="isProvider: bool" style="text;strokeColor=none;fillColor=none;align=left;verticalAlign=top;spacingLeft=4;spacingRight=4;overflow=hidden;rotatable=0;points=[[0,0.5],[1,0.5]];portConstraint=eastwest;whiteSpace=wrap;html=1;" parent="6s5vhWPi2oBte4bEisQO-54" vertex="1">
          <mxGeometry y="78" width="180" height="26" as="geometry" />
        </mxCell>
        <mxCell id="6s5vhWPi2oBte4bEisQO-65" value="Appointment Timeline" style="swimlane;fontStyle=0;childLayout=stackLayout;horizontal=1;startSize=26;fillColor=none;horizontalStack=0;resizeParent=1;resizeParentMax=0;resizeLast=0;collapsible=1;marginBottom=0;whiteSpace=wrap;html=1;" parent="WIyWlLk6GJQsqaUBKTNV-1" vertex="1">
          <mxGeometry x="288" y="1090" width="180" height="312" as="geometry" />
        </mxCell>
        <mxCell id="6s5vhWPi2oBte4bEisQO-69" value="appointmentID: string [PK]" style="text;strokeColor=none;fillColor=none;align=left;verticalAlign=top;spacingLeft=4;spacingRight=4;overflow=hidden;rotatable=0;points=[[0,0.5],[1,0.5]];portConstraint=eastwest;whiteSpace=wrap;html=1;" parent="6s5vhWPi2oBte4bEisQO-65" vertex="1">
          <mxGeometry y="26" width="180" height="26" as="geometry" />
        </mxCell>
        <mxCell id="6s5vhWPi2oBte4bEisQO-66" value="appointmentDate: datetime" style="text;strokeColor=none;fillColor=none;align=left;verticalAlign=top;spacingLeft=4;spacingRight=4;overflow=hidden;rotatable=0;points=[[0,0.5],[1,0.5]];portConstraint=eastwest;whiteSpace=wrap;html=1;" parent="6s5vhWPi2oBte4bEisQO-65" vertex="1">
          <mxGeometry y="52" width="180" height="26" as="geometry" />
        </mxCell>
        <mxCell id="6s5vhWPi2oBte4bEisQO-67" value="startTime: string" style="text;strokeColor=none;fillColor=none;align=left;verticalAlign=top;spacingLeft=4;spacingRight=4;overflow=hidden;rotatable=0;points=[[0,0.5],[1,0.5]];portConstraint=eastwest;whiteSpace=wrap;html=1;" parent="6s5vhWPi2oBte4bEisQO-65" vertex="1">
          <mxGeometry y="78" width="180" height="26" as="geometry" />
        </mxCell>
        <mxCell id="6s5vhWPi2oBte4bEisQO-68" value="endTime: string" style="text;strokeColor=none;fillColor=none;align=left;verticalAlign=top;spacingLeft=4;spacingRight=4;overflow=hidden;rotatable=0;points=[[0,0.5],[1,0.5]];portConstraint=eastwest;whiteSpace=wrap;html=1;" parent="6s5vhWPi2oBte4bEisQO-65" vertex="1">
          <mxGeometry y="104" width="180" height="26" as="geometry" />
        </mxCell>
        <mxCell id="6s5vhWPi2oBte4bEisQO-71" value="patientID: string [FK]" style="text;strokeColor=none;fillColor=none;align=left;verticalAlign=top;spacingLeft=4;spacingRight=4;overflow=hidden;rotatable=0;points=[[0,0.5],[1,0.5]];portConstraint=eastwest;whiteSpace=wrap;html=1;" parent="6s5vhWPi2oBte4bEisQO-65" vertex="1">
          <mxGeometry y="130" width="180" height="26" as="geometry" />
        </mxCell>
        <mxCell id="6s5vhWPi2oBte4bEisQO-72" value="providerID: string [FK]" style="text;strokeColor=none;fillColor=none;align=left;verticalAlign=top;spacingLeft=4;spacingRight=4;overflow=hidden;rotatable=0;points=[[0,0.5],[1,0.5]];portConstraint=eastwest;whiteSpace=wrap;html=1;" parent="6s5vhWPi2oBte4bEisQO-65" vertex="1">
          <mxGeometry y="156" width="180" height="26" as="geometry" />
        </mxCell>
        <mxCell id="6s5vhWPi2oBte4bEisQO-74" value="roomID: string [FK]" style="text;strokeColor=none;fillColor=none;align=left;verticalAlign=top;spacingLeft=4;spacingRight=4;overflow=hidden;rotatable=0;points=[[0,0.5],[1,0.5]];portConstraint=eastwest;whiteSpace=wrap;html=1;" parent="6s5vhWPi2oBte4bEisQO-65" vertex="1">
          <mxGeometry y="182" width="180" height="26" as="geometry" />
        </mxCell>
        <mxCell id="6s5vhWPi2oBte4bEisQO-73" value="procedureCode: string" style="text;strokeColor=none;fillColor=none;align=left;verticalAlign=top;spacingLeft=4;spacingRight=4;overflow=hidden;rotatable=0;points=[[0,0.5],[1,0.5]];portConstraint=eastwest;whiteSpace=wrap;html=1;" parent="6s5vhWPi2oBte4bEisQO-65" vertex="1">
          <mxGeometry y="208" width="180" height="26" as="geometry" />
        </mxCell>
        <mxCell id="6s5vhWPi2oBte4bEisQO-75" value="fee: float" style="text;strokeColor=none;fillColor=none;align=left;verticalAlign=top;spacingLeft=4;spacingRight=4;overflow=hidden;rotatable=0;points=[[0,0.5],[1,0.5]];portConstraint=eastwest;whiteSpace=wrap;html=1;" parent="6s5vhWPi2oBte4bEisQO-65" vertex="1">
          <mxGeometry y="234" width="180" height="26" as="geometry" />
        </mxCell>
        <mxCell id="_RMVuCj_aNO2bqz8egUr-27" value="&lt;font color=&quot;#3399ff&quot;&gt;notes: string&lt;/font&gt;" style="text;strokeColor=none;fillColor=none;align=left;verticalAlign=top;spacingLeft=4;spacingRight=4;overflow=hidden;rotatable=0;points=[[0,0.5],[1,0.5]];portConstraint=eastwest;whiteSpace=wrap;html=1;" parent="6s5vhWPi2oBte4bEisQO-65" vertex="1">
          <mxGeometry y="260" width="180" height="26" as="geometry" />
        </mxCell>
        <mxCell id="_RMVuCj_aNO2bqz8egUr-28" value="&lt;font color=&quot;#3399ff&quot;&gt;zippedAttachments: binary&lt;/font&gt;" style="text;strokeColor=none;fillColor=none;align=left;verticalAlign=top;spacingLeft=4;spacingRight=4;overflow=hidden;rotatable=0;points=[[0,0.5],[1,0.5]];portConstraint=eastwest;whiteSpace=wrap;html=1;" parent="6s5vhWPi2oBte4bEisQO-65" vertex="1">
          <mxGeometry y="286" width="180" height="26" as="geometry" />
        </mxCell>
        <mxCell id="6s5vhWPi2oBte4bEisQO-76" style="rounded=0;orthogonalLoop=1;jettySize=auto;html=1;edgeStyle=orthogonalEdgeStyle;jumpStyle=arc;jumpSize=10;" parent="WIyWlLk6GJQsqaUBKTNV-1" source="6s5vhWPi2oBte4bEisQO-71" target="6s5vhWPi2oBte4bEisQO-0" edge="1">
          <mxGeometry relative="1" as="geometry">
            <mxPoint x="216" y="1580.0000000000005" as="targetPoint" />
            <Array as="points">
              <mxPoint x="270" y="1223" />
              <mxPoint x="270" y="1550" />
            </Array>
          </mxGeometry>
        </mxCell>
        <mxCell id="6s5vhWPi2oBte4bEisQO-77" value="Staff" style="swimlane;fontStyle=0;childLayout=stackLayout;horizontal=1;startSize=26;fillColor=none;horizontalStack=0;resizeParent=1;resizeParentMax=0;resizeLast=0;collapsible=1;marginBottom=0;whiteSpace=wrap;html=1;" parent="WIyWlLk6GJQsqaUBKTNV-1" vertex="1">
          <mxGeometry x="250" y="1689" width="175" height="130" as="geometry" />
        </mxCell>
        <mxCell id="6s5vhWPi2oBte4bEisQO-79" value="role: string [FK]" style="text;strokeColor=none;fillColor=none;align=left;verticalAlign=top;spacingLeft=4;spacingRight=4;overflow=hidden;rotatable=0;points=[[0,0.5],[1,0.5]];portConstraint=eastwest;whiteSpace=wrap;html=1;" parent="6s5vhWPi2oBte4bEisQO-77" vertex="1">
          <mxGeometry y="26" width="175" height="26" as="geometry" />
        </mxCell>
        <mxCell id="6s5vhWPi2oBte4bEisQO-81" value="department: string [FK]" style="text;strokeColor=none;fillColor=none;align=left;verticalAlign=top;spacingLeft=4;spacingRight=4;overflow=hidden;rotatable=0;points=[[0,0.5],[1,0.5]];portConstraint=eastwest;whiteSpace=wrap;html=1;" parent="6s5vhWPi2oBte4bEisQO-77" vertex="1">
          <mxGeometry y="52" width="175" height="26" as="geometry" />
        </mxCell>
        <mxCell id="XNJbn17Z0ETbCCURGHxT-20" value="&lt;font color=&quot;#3399ff&quot;&gt;salary: string&lt;/font&gt;" style="text;strokeColor=none;fillColor=none;align=left;verticalAlign=top;spacingLeft=4;spacingRight=4;overflow=hidden;rotatable=0;points=[[0,0.5],[1,0.5]];portConstraint=eastwest;whiteSpace=wrap;html=1;" parent="6s5vhWPi2oBte4bEisQO-77" vertex="1">
          <mxGeometry y="78" width="175" height="26" as="geometry" />
        </mxCell>
        <mxCell id="XNJbn17Z0ETbCCURGHxT-19" value="&lt;font color=&quot;#3399ff&quot;&gt;payType: string&lt;/font&gt;" style="text;strokeColor=none;fillColor=none;align=left;verticalAlign=top;spacingLeft=4;spacingRight=4;overflow=hidden;rotatable=0;points=[[0,0.5],[1,0.5]];portConstraint=eastwest;whiteSpace=wrap;html=1;" parent="6s5vhWPi2oBte4bEisQO-77" vertex="1">
          <mxGeometry y="104" width="175" height="26" as="geometry" />
        </mxCell>
        <mxCell id="6s5vhWPi2oBte4bEisQO-82" value="Department" style="swimlane;fontStyle=0;childLayout=stackLayout;horizontal=1;startSize=26;fillColor=none;horizontalStack=0;resizeParent=1;resizeParentMax=0;resizeLast=0;collapsible=1;marginBottom=0;whiteSpace=wrap;html=1;" parent="WIyWlLk6GJQsqaUBKTNV-1" vertex="1">
          <mxGeometry x="511.25" y="1590" width="207.5" height="78" as="geometry" />
        </mxCell>
        <mxCell id="6s5vhWPi2oBte4bEisQO-83" value="deptID: string [PK]" style="text;strokeColor=none;fillColor=none;align=left;verticalAlign=top;spacingLeft=4;spacingRight=4;overflow=hidden;rotatable=0;points=[[0,0.5],[1,0.5]];portConstraint=eastwest;whiteSpace=wrap;html=1;" parent="6s5vhWPi2oBte4bEisQO-82" vertex="1">
          <mxGeometry y="26" width="207.5" height="26" as="geometry" />
        </mxCell>
        <mxCell id="6s5vhWPi2oBte4bEisQO-84" value="deptName: string" style="text;strokeColor=none;fillColor=none;align=left;verticalAlign=top;spacingLeft=4;spacingRight=4;overflow=hidden;rotatable=0;points=[[0,0.5],[1,0.5]];portConstraint=eastwest;whiteSpace=wrap;html=1;" parent="6s5vhWPi2oBte4bEisQO-82" vertex="1">
          <mxGeometry y="52" width="207.5" height="26" as="geometry" />
        </mxCell>
        <mxCell id="6s5vhWPi2oBte4bEisQO-87" style="rounded=0;orthogonalLoop=1;jettySize=auto;html=1;edgeStyle=orthogonalEdgeStyle;jumpStyle=arc;jumpSize=10;" parent="WIyWlLk6GJQsqaUBKTNV-1" source="6s5vhWPi2oBte4bEisQO-81" target="6s5vhWPi2oBte4bEisQO-83" edge="1">
          <mxGeometry relative="1" as="geometry">
            <Array as="points">
              <mxPoint x="490" y="1754" />
              <mxPoint x="490" y="1629" />
            </Array>
          </mxGeometry>
        </mxCell>
        <mxCell id="6s5vhWPi2oBte4bEisQO-89" style="rounded=0;orthogonalLoop=1;jettySize=auto;html=1;edgeStyle=orthogonalEdgeStyle;jumpStyle=arc;jumpSize=10;" parent="WIyWlLk6GJQsqaUBKTNV-1" source="6s5vhWPi2oBte4bEisQO-88" target="6s5vhWPi2oBte4bEisQO-83" edge="1">
          <mxGeometry relative="1" as="geometry">
            <Array as="points">
              <mxPoint x="740" y="1665" />
              <mxPoint x="740" y="1629" />
            </Array>
          </mxGeometry>
        </mxCell>
        <mxCell id="6s5vhWPi2oBte4bEisQO-90" style="rounded=0;orthogonalLoop=1;jettySize=auto;html=1;edgeStyle=orthogonalEdgeStyle;jumpStyle=arc;jumpSize=10;" parent="WIyWlLk6GJQsqaUBKTNV-1" source="6s5vhWPi2oBte4bEisQO-72" target="6s5vhWPi2oBte4bEisQO-77" edge="1">
          <mxGeometry relative="1" as="geometry">
            <Array as="points">
              <mxPoint x="280" y="1260" />
              <mxPoint x="280" y="1473" />
              <mxPoint x="445" y="1473" />
              <mxPoint x="445" y="1697" />
            </Array>
            <mxPoint x="425" y="1697" as="targetPoint" />
          </mxGeometry>
        </mxCell>
        <mxCell id="6s5vhWPi2oBte4bEisQO-91" value="Room" style="swimlane;fontStyle=0;childLayout=stackLayout;horizontal=1;startSize=26;fillColor=none;horizontalStack=0;resizeParent=1;resizeParentMax=0;resizeLast=0;collapsible=1;marginBottom=0;whiteSpace=wrap;html=1;" parent="WIyWlLk6GJQsqaUBKTNV-1" vertex="1">
          <mxGeometry x="511.25" y="1284" width="240" height="130" as="geometry" />
        </mxCell>
        <mxCell id="6s5vhWPi2oBte4bEisQO-92" value="roomID: string [PK]" style="text;strokeColor=none;fillColor=none;align=left;verticalAlign=top;spacingLeft=4;spacingRight=4;overflow=hidden;rotatable=0;points=[[0,0.5],[1,0.5]];portConstraint=eastwest;whiteSpace=wrap;html=1;" parent="6s5vhWPi2oBte4bEisQO-91" vertex="1">
          <mxGeometry y="26" width="240" height="26" as="geometry" />
        </mxCell>
        <mxCell id="6s5vhWPi2oBte4bEisQO-93" value="roomName: string" style="text;strokeColor=none;fillColor=none;align=left;verticalAlign=top;spacingLeft=4;spacingRight=4;overflow=hidden;rotatable=0;points=[[0,0.5],[1,0.5]];portConstraint=eastwest;whiteSpace=wrap;html=1;" parent="6s5vhWPi2oBte4bEisQO-91" vertex="1">
          <mxGeometry y="52" width="240" height="26" as="geometry" />
        </mxCell>
        <mxCell id="6s5vhWPi2oBte4bEisQO-94" value="roomStatus: string [FK]" style="text;strokeColor=none;fillColor=none;align=left;verticalAlign=top;spacingLeft=4;spacingRight=4;overflow=hidden;rotatable=0;points=[[0,0.5],[1,0.5]];portConstraint=eastwest;whiteSpace=wrap;html=1;" parent="6s5vhWPi2oBte4bEisQO-91" vertex="1">
          <mxGeometry y="78" width="240" height="26" as="geometry" />
        </mxCell>
        <mxCell id="6s5vhWPi2oBte4bEisQO-100" value="department: string [FK]" style="text;strokeColor=none;fillColor=none;align=left;verticalAlign=top;spacingLeft=4;spacingRight=4;overflow=hidden;rotatable=0;points=[[0,0.5],[1,0.5]];portConstraint=eastwest;whiteSpace=wrap;html=1;" parent="6s5vhWPi2oBte4bEisQO-91" vertex="1">
          <mxGeometry y="104" width="240" height="26" as="geometry" />
        </mxCell>
        <mxCell id="6s5vhWPi2oBte4bEisQO-99" style="rounded=0;orthogonalLoop=1;jettySize=auto;html=1;edgeStyle=orthogonalEdgeStyle;jumpStyle=arc;jumpSize=10;" parent="WIyWlLk6GJQsqaUBKTNV-1" source="6s5vhWPi2oBte4bEisQO-94" target="cIcH_N4xVWaxeV6_vvsU-0" edge="1">
          <mxGeometry relative="1" as="geometry">
            <mxPoint x="790" y="1375" as="targetPoint" />
            <Array as="points">
              <mxPoint x="480" y="1375" />
              <mxPoint x="480" y="1959" />
            </Array>
          </mxGeometry>
        </mxCell>
        <mxCell id="6s5vhWPi2oBte4bEisQO-101" style="rounded=0;orthogonalLoop=1;jettySize=auto;html=1;edgeStyle=orthogonalEdgeStyle;jumpStyle=arc;jumpSize=10;" parent="WIyWlLk6GJQsqaUBKTNV-1" source="6s5vhWPi2oBte4bEisQO-100" target="6s5vhWPi2oBte4bEisQO-83" edge="1">
          <mxGeometry relative="1" as="geometry">
            <mxPoint x="530" y="746" as="sourcePoint" />
            <mxPoint x="290" y="1048" as="targetPoint" />
            <Array as="points">
              <mxPoint x="500" y="1401" />
              <mxPoint x="500" y="1515" />
              <mxPoint x="739" y="1515" />
              <mxPoint x="739" y="1629" />
            </Array>
          </mxGeometry>
        </mxCell>
        <mxCell id="6s5vhWPi2oBte4bEisQO-102" style="rounded=0;orthogonalLoop=1;jettySize=auto;html=1;edgeStyle=orthogonalEdgeStyle;jumpStyle=arc;jumpSize=10;" parent="WIyWlLk6GJQsqaUBKTNV-1" source="6s5vhWPi2oBte4bEisQO-74" target="6s5vhWPi2oBte4bEisQO-92" edge="1">
          <mxGeometry relative="1" as="geometry">
            <Array as="points">
              <mxPoint x="500" y="1285" />
              <mxPoint x="500" y="1323" />
            </Array>
          </mxGeometry>
        </mxCell>
        <mxCell id="6s5vhWPi2oBte4bEisQO-108" value="Insurance Agency" style="swimlane;fontStyle=0;childLayout=stackLayout;horizontal=1;startSize=26;fillColor=none;horizontalStack=0;resizeParent=1;resizeParentMax=0;resizeLast=0;collapsible=1;marginBottom=0;whiteSpace=wrap;html=1;" parent="WIyWlLk6GJQsqaUBKTNV-1" vertex="1">
          <mxGeometry x="-553" y="1052" width="140" height="78" as="geometry" />
        </mxCell>
        <mxCell id="6s5vhWPi2oBte4bEisQO-109" value="agencyID: string [PK]" style="text;strokeColor=none;fillColor=none;align=left;verticalAlign=top;spacingLeft=4;spacingRight=4;overflow=hidden;rotatable=0;points=[[0,0.5],[1,0.5]];portConstraint=eastwest;whiteSpace=wrap;html=1;" parent="6s5vhWPi2oBte4bEisQO-108" vertex="1">
          <mxGeometry y="26" width="140" height="26" as="geometry" />
        </mxCell>
        <mxCell id="6s5vhWPi2oBte4bEisQO-110" value="agencyName: string" style="text;strokeColor=none;fillColor=none;align=left;verticalAlign=top;spacingLeft=4;spacingRight=4;overflow=hidden;rotatable=0;points=[[0,0.5],[1,0.5]];portConstraint=eastwest;whiteSpace=wrap;html=1;" parent="6s5vhWPi2oBte4bEisQO-108" vertex="1">
          <mxGeometry y="52" width="140" height="26" as="geometry" />
        </mxCell>
        <mxCell id="6s5vhWPi2oBte4bEisQO-113" value="Insurance Plan" style="swimlane;fontStyle=0;childLayout=stackLayout;horizontal=1;startSize=26;fillColor=none;horizontalStack=0;resizeParent=1;resizeParentMax=0;resizeLast=0;collapsible=1;marginBottom=0;whiteSpace=wrap;html=1;" parent="WIyWlLk6GJQsqaUBKTNV-1" vertex="1">
          <mxGeometry x="-360" y="900" width="200" height="180" as="geometry" />
        </mxCell>
        <mxCell id="6s5vhWPi2oBte4bEisQO-114" value="planID: string [PK]" style="text;strokeColor=none;fillColor=none;align=left;verticalAlign=top;spacingLeft=4;spacingRight=4;overflow=hidden;rotatable=0;points=[[0,0.5],[1,0.5]];portConstraint=eastwest;whiteSpace=wrap;html=1;" parent="6s5vhWPi2oBte4bEisQO-113" vertex="1">
          <mxGeometry y="26" width="200" height="24" as="geometry" />
        </mxCell>
        <mxCell id="6s5vhWPi2oBte4bEisQO-115" value="title: string" style="text;strokeColor=none;fillColor=none;align=left;verticalAlign=top;spacingLeft=4;spacingRight=4;overflow=hidden;rotatable=0;points=[[0,0.5],[1,0.5]];portConstraint=eastwest;whiteSpace=wrap;html=1;" parent="6s5vhWPi2oBte4bEisQO-113" vertex="1">
          <mxGeometry y="50" width="200" height="26" as="geometry" />
        </mxCell>
        <mxCell id="6s5vhWPi2oBte4bEisQO-116" value="planDescription: string" style="text;strokeColor=none;fillColor=none;align=left;verticalAlign=top;spacingLeft=4;spacingRight=4;overflow=hidden;rotatable=0;points=[[0,0.5],[1,0.5]];portConstraint=eastwest;whiteSpace=wrap;html=1;" parent="6s5vhWPi2oBte4bEisQO-113" vertex="1">
          <mxGeometry y="76" width="200" height="26" as="geometry" />
        </mxCell>
        <mxCell id="6s5vhWPi2oBte4bEisQO-118" value="deductible: float" style="text;strokeColor=none;fillColor=none;align=left;verticalAlign=top;spacingLeft=4;spacingRight=4;overflow=hidden;rotatable=0;points=[[0,0.5],[1,0.5]];portConstraint=eastwest;whiteSpace=wrap;html=1;" parent="6s5vhWPi2oBte4bEisQO-113" vertex="1">
          <mxGeometry y="102" width="200" height="26" as="geometry" />
        </mxCell>
        <mxCell id="6s5vhWPi2oBte4bEisQO-117" value="postDeductibleSplit: float" style="text;strokeColor=none;fillColor=none;align=left;verticalAlign=top;spacingLeft=4;spacingRight=4;overflow=hidden;rotatable=0;points=[[0,0.5],[1,0.5]];portConstraint=eastwest;whiteSpace=wrap;html=1;" parent="6s5vhWPi2oBte4bEisQO-113" vertex="1">
          <mxGeometry y="128" width="200" height="26" as="geometry" />
        </mxCell>
        <mxCell id="6s5vhWPi2oBte4bEisQO-119" value="insuranceAgency: string [FK]" style="text;strokeColor=none;fillColor=none;align=left;verticalAlign=top;spacingLeft=4;spacingRight=4;overflow=hidden;rotatable=0;points=[[0,0.5],[1,0.5]];portConstraint=eastwest;whiteSpace=wrap;html=1;" parent="6s5vhWPi2oBte4bEisQO-113" vertex="1">
          <mxGeometry y="154" width="200" height="26" as="geometry" />
        </mxCell>
        <mxCell id="6s5vhWPi2oBte4bEisQO-120" style="rounded=0;orthogonalLoop=1;jettySize=auto;html=1;edgeStyle=orthogonalEdgeStyle;jumpStyle=arc;jumpSize=10;" parent="WIyWlLk6GJQsqaUBKTNV-1" source="6s5vhWPi2oBte4bEisQO-119" target="6s5vhWPi2oBte4bEisQO-109" edge="1">
          <mxGeometry relative="1" as="geometry" />
        </mxCell>
        <mxCell id="6s5vhWPi2oBte4bEisQO-129" style="rounded=0;orthogonalLoop=1;jettySize=auto;html=1;edgeStyle=orthogonalEdgeStyle;jumpStyle=arc;jumpSize=10;" parent="WIyWlLk6GJQsqaUBKTNV-1" source="ZfSKOzxZ88lNqSnVztVK-0" target="6s5vhWPi2oBte4bEisQO-114" edge="1">
          <mxGeometry relative="1" as="geometry">
            <Array as="points">
              <mxPoint x="-50" y="1603" />
              <mxPoint x="-50" y="938" />
            </Array>
            <mxPoint x="-50" y="1774" as="sourcePoint" />
          </mxGeometry>
        </mxCell>
        <mxCell id="6s5vhWPi2oBte4bEisQO-131" style="rounded=0;orthogonalLoop=1;jettySize=auto;html=1;edgeStyle=orthogonalEdgeStyle;jumpStyle=arc;jumpSize=10;strokeColor=#FF9999;" parent="WIyWlLk6GJQsqaUBKTNV-1" source="6s5vhWPi2oBte4bEisQO-44" target="6s5vhWPi2oBte4bEisQO-55" edge="1">
          <mxGeometry relative="1" as="geometry">
            <Array as="points">
              <mxPoint x="1370" y="1375" />
              <mxPoint x="1370" y="1559" />
            </Array>
          </mxGeometry>
        </mxCell>
        <mxCell id="6s5vhWPi2oBte4bEisQO-133" style="rounded=0;orthogonalLoop=1;jettySize=auto;html=1;edgeStyle=orthogonalEdgeStyle;jumpStyle=arc;jumpSize=10;" parent="WIyWlLk6GJQsqaUBKTNV-1" source="6s5vhWPi2oBte4bEisQO-73" target="6s5vhWPi2oBte4bEisQO-22" edge="1">
          <mxGeometry relative="1" as="geometry">
            <Array as="points">
              <mxPoint x="490" y="1311" />
              <mxPoint x="490" y="1561" />
            </Array>
          </mxGeometry>
        </mxCell>
        <mxCell id="6s5vhWPi2oBte4bEisQO-144" style="rounded=0;orthogonalLoop=1;jettySize=auto;html=1;edgeStyle=orthogonalEdgeStyle;jumpStyle=arc;jumpSize=10;" parent="WIyWlLk6GJQsqaUBKTNV-1" source="6s5vhWPi2oBte4bEisQO-34" target="6s5vhWPi2oBte4bEisQO-22" edge="1">
          <mxGeometry relative="1" as="geometry">
            <Array as="points">
              <mxPoint x="1120" y="1741" />
              <mxPoint x="1120" y="1561" />
            </Array>
          </mxGeometry>
        </mxCell>
        <mxCell id="6s5vhWPi2oBte4bEisQO-146" style="rounded=0;orthogonalLoop=1;jettySize=auto;html=1;edgeStyle=orthogonalEdgeStyle;jumpStyle=arc;jumpSize=10;" parent="WIyWlLk6GJQsqaUBKTNV-1" source="6s5vhWPi2oBte4bEisQO-43" target="6s5vhWPi2oBte4bEisQO-22" edge="1">
          <mxGeometry relative="1" as="geometry">
            <Array as="points">
              <mxPoint x="1140" y="1349" />
              <mxPoint x="1140" y="1550" />
            </Array>
          </mxGeometry>
        </mxCell>
        <mxCell id="6s5vhWPi2oBte4bEisQO-147" value="Transaction" style="swimlane;fontStyle=0;childLayout=stackLayout;horizontal=1;startSize=26;fillColor=none;horizontalStack=0;resizeParent=1;resizeParentMax=0;resizeLast=0;collapsible=1;marginBottom=0;whiteSpace=wrap;html=1;" parent="WIyWlLk6GJQsqaUBKTNV-1" vertex="1">
          <mxGeometry x="-680" y="1208" width="240" height="312" as="geometry" />
        </mxCell>
        <mxCell id="6s5vhWPi2oBte4bEisQO-148" value="transactionID: string [PK]" style="text;strokeColor=none;fillColor=none;align=left;verticalAlign=top;spacingLeft=4;spacingRight=4;overflow=hidden;rotatable=0;points=[[0,0.5],[1,0.5]];portConstraint=eastwest;whiteSpace=wrap;html=1;" parent="6s5vhWPi2oBte4bEisQO-147" vertex="1">
          <mxGeometry y="26" width="240" height="26" as="geometry" />
        </mxCell>
        <mxCell id="cH1I5Z5Tquukox3wi0oo-0" value="transactionDate: date" style="text;strokeColor=none;fillColor=none;align=left;verticalAlign=top;spacingLeft=4;spacingRight=4;overflow=hidden;rotatable=0;points=[[0,0.5],[1,0.5]];portConstraint=eastwest;whiteSpace=wrap;html=1;" parent="6s5vhWPi2oBte4bEisQO-147" vertex="1">
          <mxGeometry y="52" width="240" height="26" as="geometry" />
        </mxCell>
        <mxCell id="6s5vhWPi2oBte4bEisQO-149" value="patientInsurancePlanID: string [FK]" style="text;strokeColor=none;fillColor=none;align=left;verticalAlign=top;spacingLeft=4;spacingRight=4;overflow=hidden;rotatable=0;points=[[0,0.5],[1,0.5]];portConstraint=eastwest;whiteSpace=wrap;html=1;" parent="6s5vhWPi2oBte4bEisQO-147" vertex="1">
          <mxGeometry y="78" width="240" height="26" as="geometry" />
        </mxCell>
        <mxCell id="cIcH_N4xVWaxeV6_vvsU-5" value="isSourceInsurance: string [FK]" style="text;strokeColor=none;fillColor=none;align=left;verticalAlign=top;spacingLeft=4;spacingRight=4;overflow=hidden;rotatable=0;points=[[0,0.5],[1,0.5]];portConstraint=eastwest;whiteSpace=wrap;html=1;" parent="6s5vhWPi2oBte4bEisQO-147" vertex="1">
          <mxGeometry y="104" width="240" height="26" as="geometry" />
        </mxCell>
        <mxCell id="6s5vhWPi2oBte4bEisQO-154" value="paymentPlanID: string [FK]" style="text;strokeColor=none;fillColor=none;align=left;verticalAlign=top;spacingLeft=4;spacingRight=4;overflow=hidden;rotatable=0;points=[[0,0.5],[1,0.5]];portConstraint=eastwest;whiteSpace=wrap;html=1;" parent="6s5vhWPi2oBte4bEisQO-147" vertex="1">
          <mxGeometry y="130" width="240" height="26" as="geometry" />
        </mxCell>
        <mxCell id="6s5vhWPi2oBte4bEisQO-150" value="appointmentID: string [FK]" style="text;strokeColor=none;fillColor=none;align=left;verticalAlign=top;spacingLeft=4;spacingRight=4;overflow=hidden;rotatable=0;points=[[0,0.5],[1,0.5]];portConstraint=eastwest;whiteSpace=wrap;html=1;" parent="6s5vhWPi2oBte4bEisQO-147" vertex="1">
          <mxGeometry y="156" width="240" height="26" as="geometry" />
        </mxCell>
        <mxCell id="6s5vhWPi2oBte4bEisQO-151" value="patientID: string [FK]" style="text;strokeColor=none;fillColor=none;align=left;verticalAlign=top;spacingLeft=4;spacingRight=4;overflow=hidden;rotatable=0;points=[[0,0.5],[1,0.5]];portConstraint=eastwest;whiteSpace=wrap;html=1;" parent="6s5vhWPi2oBte4bEisQO-147" vertex="1">
          <mxGeometry y="182" width="240" height="26" as="geometry" />
        </mxCell>
        <mxCell id="6s5vhWPi2oBte4bEisQO-152" value="total: float" style="text;strokeColor=none;fillColor=none;align=left;verticalAlign=top;spacingLeft=4;spacingRight=4;overflow=hidden;rotatable=0;points=[[0,0.5],[1,0.5]];portConstraint=eastwest;whiteSpace=wrap;html=1;" parent="6s5vhWPi2oBte4bEisQO-147" vertex="1">
          <mxGeometry y="208" width="240" height="26" as="geometry" />
        </mxCell>
        <mxCell id="6s5vhWPi2oBte4bEisQO-153" value="remainingBalance: float" style="text;strokeColor=none;fillColor=none;align=left;verticalAlign=top;spacingLeft=4;spacingRight=4;overflow=hidden;rotatable=0;points=[[0,0.5],[1,0.5]];portConstraint=eastwest;whiteSpace=wrap;html=1;" parent="6s5vhWPi2oBte4bEisQO-147" vertex="1">
          <mxGeometry y="234" width="240" height="26" as="geometry" />
        </mxCell>
        <mxCell id="6s5vhWPi2oBte4bEisQO-159" value="transactionStatus: enum" style="text;strokeColor=none;fillColor=none;align=left;verticalAlign=top;spacingLeft=4;spacingRight=4;overflow=hidden;rotatable=0;points=[[0,0.5],[1,0.5]];portConstraint=eastwest;whiteSpace=wrap;html=1;" parent="6s5vhWPi2oBte4bEisQO-147" vertex="1">
          <mxGeometry y="260" width="240" height="26" as="geometry" />
        </mxCell>
        <mxCell id="6s5vhWPi2oBte4bEisQO-170" value="inNetwork: bool" style="text;strokeColor=none;fillColor=none;align=left;verticalAlign=top;spacingLeft=4;spacingRight=4;overflow=hidden;rotatable=0;points=[[0,0.5],[1,0.5]];portConstraint=eastwest;whiteSpace=wrap;html=1;" parent="6s5vhWPi2oBte4bEisQO-147" vertex="1">
          <mxGeometry y="286" width="240" height="26" as="geometry" />
        </mxCell>
        <mxCell id="6s5vhWPi2oBte4bEisQO-155" value="Payment Plans" style="swimlane;fontStyle=0;childLayout=stackLayout;horizontal=1;startSize=26;fillColor=none;horizontalStack=0;resizeParent=1;resizeParentMax=0;resizeLast=0;collapsible=1;marginBottom=0;whiteSpace=wrap;html=1;" parent="WIyWlLk6GJQsqaUBKTNV-1" vertex="1">
          <mxGeometry x="-310" y="1244" width="190" height="182" as="geometry" />
        </mxCell>
        <mxCell id="6s5vhWPi2oBte4bEisQO-175" value="planID: string [PK]" style="text;strokeColor=none;fillColor=none;align=left;verticalAlign=top;spacingLeft=4;spacingRight=4;overflow=hidden;rotatable=0;points=[[0,0.5],[1,0.5]];portConstraint=eastwest;whiteSpace=wrap;html=1;" parent="6s5vhWPi2oBte4bEisQO-155" vertex="1">
          <mxGeometry y="26" width="190" height="26" as="geometry" />
        </mxCell>
        <mxCell id="6s5vhWPi2oBte4bEisQO-156" value="title: string" style="text;strokeColor=none;fillColor=none;align=left;verticalAlign=top;spacingLeft=4;spacingRight=4;overflow=hidden;rotatable=0;points=[[0,0.5],[1,0.5]];portConstraint=eastwest;whiteSpace=wrap;html=1;" parent="6s5vhWPi2oBte4bEisQO-155" vertex="1">
          <mxGeometry y="52" width="190" height="26" as="geometry" />
        </mxCell>
        <mxCell id="6s5vhWPi2oBte4bEisQO-157" value="paymentPeriodDays: int" style="text;strokeColor=none;fillColor=none;align=left;verticalAlign=top;spacingLeft=4;spacingRight=4;overflow=hidden;rotatable=0;points=[[0,0.5],[1,0.5]];portConstraint=eastwest;whiteSpace=wrap;html=1;" parent="6s5vhWPi2oBte4bEisQO-155" vertex="1">
          <mxGeometry y="78" width="190" height="26" as="geometry" />
        </mxCell>
        <mxCell id="6s5vhWPi2oBte4bEisQO-158" value="monthlyMinimum: float" style="text;strokeColor=none;fillColor=none;align=left;verticalAlign=top;spacingLeft=4;spacingRight=4;overflow=hidden;rotatable=0;points=[[0,0.5],[1,0.5]];portConstraint=eastwest;whiteSpace=wrap;html=1;" parent="6s5vhWPi2oBte4bEisQO-155" vertex="1">
          <mxGeometry y="104" width="190" height="26" as="geometry" />
        </mxCell>
        <mxCell id="6s5vhWPi2oBte4bEisQO-177" value="paidPrinciple: float" style="text;strokeColor=none;fillColor=none;align=left;verticalAlign=top;spacingLeft=4;spacingRight=4;overflow=hidden;rotatable=0;points=[[0,0.5],[1,0.5]];portConstraint=eastwest;whiteSpace=wrap;html=1;" parent="6s5vhWPi2oBte4bEisQO-155" vertex="1">
          <mxGeometry y="130" width="190" height="26" as="geometry" />
        </mxCell>
        <mxCell id="6s5vhWPi2oBte4bEisQO-178" value="monthlyInterest: float" style="text;strokeColor=none;fillColor=none;align=left;verticalAlign=top;spacingLeft=4;spacingRight=4;overflow=hidden;rotatable=0;points=[[0,0.5],[1,0.5]];portConstraint=eastwest;whiteSpace=wrap;html=1;" parent="6s5vhWPi2oBte4bEisQO-155" vertex="1">
          <mxGeometry y="156" width="190" height="26" as="geometry" />
        </mxCell>
        <mxCell id="6s5vhWPi2oBte4bEisQO-169" style="rounded=0;orthogonalLoop=1;jettySize=auto;html=1;exitX=1;exitY=0.5;exitDx=0;exitDy=0;edgeStyle=orthogonalEdgeStyle;jumpStyle=arc;jumpSize=10;endArrow=none;endFill=0;" parent="WIyWlLk6GJQsqaUBKTNV-1" source="6s5vhWPi2oBte4bEisQO-159" target="cIcH_N4xVWaxeV6_vvsU-0" edge="1">
          <mxGeometry relative="1" as="geometry">
            <Array as="points">
              <mxPoint x="-440" y="1491" />
              <mxPoint x="-380" y="1491" />
              <mxPoint x="-380" y="1960" />
            </Array>
            <mxPoint x="-319.923076923077" y="1478" as="targetPoint" />
          </mxGeometry>
        </mxCell>
        <mxCell id="6s5vhWPi2oBte4bEisQO-171" style="rounded=0;orthogonalLoop=1;jettySize=auto;html=1;edgeStyle=orthogonalEdgeStyle;jumpStyle=arc;jumpSize=10;" parent="WIyWlLk6GJQsqaUBKTNV-1" source="6s5vhWPi2oBte4bEisQO-149" target="6s5vhWPi2oBte4bEisQO-114" edge="1">
          <mxGeometry relative="1" as="geometry">
            <Array as="points">
              <mxPoint x="-380" y="1309" />
              <mxPoint x="-380" y="938" />
            </Array>
          </mxGeometry>
        </mxCell>
        <mxCell id="6s5vhWPi2oBte4bEisQO-173" style="rounded=0;orthogonalLoop=1;jettySize=auto;html=1;edgeStyle=orthogonalEdgeStyle;jumpStyle=arc;jumpSize=10;" parent="WIyWlLk6GJQsqaUBKTNV-1" source="6s5vhWPi2oBte4bEisQO-150" target="6s5vhWPi2oBte4bEisQO-69" edge="1">
          <mxGeometry relative="1" as="geometry">
            <Array as="points">
              <mxPoint x="-370" y="1377" />
              <mxPoint x="-370" y="1119" />
            </Array>
          </mxGeometry>
        </mxCell>
        <mxCell id="6s5vhWPi2oBte4bEisQO-174" style="rounded=0;orthogonalLoop=1;jettySize=auto;html=1;edgeStyle=orthogonalEdgeStyle;jumpStyle=arc;jumpSize=10;" parent="WIyWlLk6GJQsqaUBKTNV-1" source="6s5vhWPi2oBte4bEisQO-151" target="6s5vhWPi2oBte4bEisQO-0" edge="1">
          <mxGeometry relative="1" as="geometry">
            <Array as="points">
              <mxPoint x="-370" y="1403" />
              <mxPoint x="-370" y="1550" />
            </Array>
            <mxPoint x="21" y="1579.0526315789475" as="targetPoint" />
          </mxGeometry>
        </mxCell>
        <mxCell id="6s5vhWPi2oBte4bEisQO-176" style="rounded=0;orthogonalLoop=1;jettySize=auto;html=1;edgeStyle=orthogonalEdgeStyle;jumpStyle=arc;jumpSize=10;" parent="WIyWlLk6GJQsqaUBKTNV-1" source="6s5vhWPi2oBte4bEisQO-154" target="6s5vhWPi2oBte4bEisQO-175" edge="1">
          <mxGeometry relative="1" as="geometry">
            <Array as="points">
              <mxPoint x="-360" y="1351" />
              <mxPoint x="-360" y="1271" />
            </Array>
          </mxGeometry>
        </mxCell>
        <mxCell id="6s5vhWPi2oBte4bEisQO-179" value="Claim" style="swimlane;fontStyle=0;childLayout=stackLayout;horizontal=1;startSize=26;fillColor=none;horizontalStack=0;resizeParent=1;resizeParentMax=0;resizeLast=0;collapsible=1;marginBottom=0;whiteSpace=wrap;html=1;" parent="WIyWlLk6GJQsqaUBKTNV-1" vertex="1">
          <mxGeometry x="-30" y="1140" width="246" height="286" as="geometry" />
        </mxCell>
        <mxCell id="6s5vhWPi2oBte4bEisQO-183" value="claimID: string [PK]" style="text;strokeColor=none;fillColor=none;align=left;verticalAlign=top;spacingLeft=4;spacingRight=4;overflow=hidden;rotatable=0;points=[[0,0.5],[1,0.5]];portConstraint=eastwest;whiteSpace=wrap;html=1;" parent="6s5vhWPi2oBte4bEisQO-179" vertex="1">
          <mxGeometry y="26" width="246" height="26" as="geometry" />
        </mxCell>
        <mxCell id="6s5vhWPi2oBte4bEisQO-180" value="fileDate: datetime" style="text;strokeColor=none;fillColor=none;align=left;verticalAlign=top;spacingLeft=4;spacingRight=4;overflow=hidden;rotatable=0;points=[[0,0.5],[1,0.5]];portConstraint=eastwest;whiteSpace=wrap;html=1;" parent="6s5vhWPi2oBte4bEisQO-179" vertex="1">
          <mxGeometry y="52" width="246" height="26" as="geometry" />
        </mxCell>
        <mxCell id="6s5vhWPi2oBte4bEisQO-181" value="membershipID: string [FK]" style="text;strokeColor=none;fillColor=none;align=left;verticalAlign=top;spacingLeft=4;spacingRight=4;overflow=hidden;rotatable=0;points=[[0,0.5],[1,0.5]];portConstraint=eastwest;whiteSpace=wrap;html=1;" parent="6s5vhWPi2oBte4bEisQO-179" vertex="1">
          <mxGeometry y="78" width="246" height="26" as="geometry" />
        </mxCell>
        <mxCell id="6s5vhWPi2oBte4bEisQO-184" value="appointmentID: string [FK]" style="text;strokeColor=none;fillColor=none;align=left;verticalAlign=top;spacingLeft=4;spacingRight=4;overflow=hidden;rotatable=0;points=[[0,0.5],[1,0.5]];portConstraint=eastwest;whiteSpace=wrap;html=1;" parent="6s5vhWPi2oBte4bEisQO-179" vertex="1">
          <mxGeometry y="104" width="246" height="26" as="geometry" />
        </mxCell>
        <mxCell id="6s5vhWPi2oBte4bEisQO-185" value="paymentPlanID: string [FK]" style="text;strokeColor=none;fillColor=none;align=left;verticalAlign=top;spacingLeft=4;spacingRight=4;overflow=hidden;rotatable=0;points=[[0,0.5],[1,0.5]];portConstraint=eastwest;whiteSpace=wrap;html=1;" parent="6s5vhWPi2oBte4bEisQO-179" vertex="1">
          <mxGeometry y="130" width="246" height="26" as="geometry" />
        </mxCell>
        <mxCell id="6s5vhWPi2oBte4bEisQO-186" value="paidDeductible: float" style="text;strokeColor=none;fillColor=none;align=left;verticalAlign=top;spacingLeft=4;spacingRight=4;overflow=hidden;rotatable=0;points=[[0,0.5],[1,0.5]];portConstraint=eastwest;whiteSpace=wrap;html=1;" parent="6s5vhWPi2oBte4bEisQO-179" vertex="1">
          <mxGeometry y="156" width="246" height="26" as="geometry" />
        </mxCell>
        <mxCell id="6s5vhWPi2oBte4bEisQO-187" value="patientCopay: float" style="text;strokeColor=none;fillColor=none;align=left;verticalAlign=top;spacingLeft=4;spacingRight=4;overflow=hidden;rotatable=0;points=[[0,0.5],[1,0.5]];portConstraint=eastwest;whiteSpace=wrap;html=1;" parent="6s5vhWPi2oBte4bEisQO-179" vertex="1">
          <mxGeometry y="182" width="246" height="26" as="geometry" />
        </mxCell>
        <mxCell id="6s5vhWPi2oBte4bEisQO-188" value="insurancePay: float" style="text;strokeColor=none;fillColor=none;align=left;verticalAlign=top;spacingLeft=4;spacingRight=4;overflow=hidden;rotatable=0;points=[[0,0.5],[1,0.5]];portConstraint=eastwest;whiteSpace=wrap;html=1;" parent="6s5vhWPi2oBte4bEisQO-179" vertex="1">
          <mxGeometry y="208" width="246" height="26" as="geometry" />
        </mxCell>
        <mxCell id="6s5vhWPi2oBte4bEisQO-189" value="claimStatus: string [FK]" style="text;strokeColor=none;fillColor=none;align=left;verticalAlign=top;spacingLeft=4;spacingRight=4;overflow=hidden;rotatable=0;points=[[0,0.5],[1,0.5]];portConstraint=eastwest;whiteSpace=wrap;html=1;" parent="6s5vhWPi2oBte4bEisQO-179" vertex="1">
          <mxGeometry y="234" width="246" height="26" as="geometry" />
        </mxCell>
        <mxCell id="6s5vhWPi2oBte4bEisQO-191" value="adjustments: float" style="text;strokeColor=none;fillColor=none;align=left;verticalAlign=top;spacingLeft=4;spacingRight=4;overflow=hidden;rotatable=0;points=[[0,0.5],[1,0.5]];portConstraint=eastwest;whiteSpace=wrap;html=1;" parent="6s5vhWPi2oBte4bEisQO-179" vertex="1">
          <mxGeometry y="260" width="246" height="26" as="geometry" />
        </mxCell>
        <mxCell id="6s5vhWPi2oBte4bEisQO-192" style="rounded=0;orthogonalLoop=1;jettySize=auto;html=1;edgeStyle=orthogonalEdgeStyle;jumpStyle=arc;jumpSize=10;" parent="WIyWlLk6GJQsqaUBKTNV-1" source="6s5vhWPi2oBte4bEisQO-181" target="6s5vhWPi2oBte4bEisQO-121" edge="1">
          <mxGeometry relative="1" as="geometry">
            <Array as="points">
              <mxPoint x="250" y="1231" />
              <mxPoint x="250" y="1510" />
              <mxPoint x="-20" y="1510" />
              <mxPoint x="-20" y="1580" />
            </Array>
          </mxGeometry>
        </mxCell>
        <mxCell id="6s5vhWPi2oBte4bEisQO-194" style="rounded=0;orthogonalLoop=1;jettySize=auto;html=1;edgeStyle=orthogonalEdgeStyle;jumpStyle=arc;jumpSize=10;" parent="WIyWlLk6GJQsqaUBKTNV-1" source="6s5vhWPi2oBte4bEisQO-184" target="6s5vhWPi2oBte4bEisQO-69" edge="1">
          <mxGeometry relative="1" as="geometry">
            <Array as="points">
              <mxPoint x="260" y="1260" />
              <mxPoint x="260" y="1129" />
            </Array>
          </mxGeometry>
        </mxCell>
        <mxCell id="6s5vhWPi2oBte4bEisQO-195" style="rounded=0;orthogonalLoop=1;jettySize=auto;html=1;edgeStyle=orthogonalEdgeStyle;jumpStyle=arc;jumpSize=10;" parent="WIyWlLk6GJQsqaUBKTNV-1" source="6s5vhWPi2oBte4bEisQO-185" target="6s5vhWPi2oBte4bEisQO-175" edge="1">
          <mxGeometry relative="1" as="geometry" />
        </mxCell>
        <mxCell id="6s5vhWPi2oBte4bEisQO-19" value="Procedure History" style="swimlane;fontStyle=0;childLayout=stackLayout;horizontal=1;startSize=26;fillColor=none;horizontalStack=0;resizeParent=1;resizeParentMax=0;resizeLast=0;collapsible=1;marginBottom=0;whiteSpace=wrap;html=1;" parent="WIyWlLk6GJQsqaUBKTNV-1" vertex="1">
          <mxGeometry x="790" y="1470" width="310" height="156" as="geometry" />
        </mxCell>
        <mxCell id="6s5vhWPi2oBte4bEisQO-20" value="procedureID: string [PK]" style="text;strokeColor=none;fillColor=none;align=left;verticalAlign=top;spacingLeft=4;spacingRight=4;overflow=hidden;rotatable=0;points=[[0,0.5],[1,0.5]];portConstraint=eastwest;whiteSpace=wrap;html=1;" parent="6s5vhWPi2oBte4bEisQO-19" vertex="1">
          <mxGeometry y="26" width="310" height="26" as="geometry" />
        </mxCell>
        <mxCell id="6s5vhWPi2oBte4bEisQO-21" value="procedureDescription: string" style="text;strokeColor=none;fillColor=none;align=left;verticalAlign=top;spacingLeft=4;spacingRight=4;overflow=hidden;rotatable=0;points=[[0,0.5],[1,0.5]];portConstraint=eastwest;whiteSpace=wrap;html=1;" parent="6s5vhWPi2oBte4bEisQO-19" vertex="1">
          <mxGeometry y="52" width="310" height="26" as="geometry" />
        </mxCell>
        <mxCell id="6s5vhWPi2oBte4bEisQO-22" value="code: string" style="text;strokeColor=none;fillColor=none;align=left;verticalAlign=top;spacingLeft=4;spacingRight=4;overflow=hidden;rotatable=0;points=[[0,0.5],[1,0.5]];portConstraint=eastwest;whiteSpace=wrap;html=1;" parent="6s5vhWPi2oBte4bEisQO-19" vertex="1">
          <mxGeometry y="78" width="310" height="26" as="geometry" />
        </mxCell>
        <mxCell id="6s5vhWPi2oBte4bEisQO-27" value="fee: float" style="text;strokeColor=none;fillColor=none;align=left;verticalAlign=top;spacingLeft=4;spacingRight=4;overflow=hidden;rotatable=0;points=[[0,0.5],[1,0.5]];portConstraint=eastwest;whiteSpace=wrap;html=1;" parent="6s5vhWPi2oBte4bEisQO-19" vertex="1">
          <mxGeometry y="104" width="310" height="26" as="geometry" />
        </mxCell>
        <mxCell id="6s5vhWPi2oBte4bEisQO-88" value="department: string [FK]" style="text;strokeColor=none;fillColor=none;align=left;verticalAlign=top;spacingLeft=4;spacingRight=4;overflow=hidden;rotatable=0;points=[[0,0.5],[1,0.5]];portConstraint=eastwest;whiteSpace=wrap;html=1;" parent="6s5vhWPi2oBte4bEisQO-19" vertex="1">
          <mxGeometry y="130" width="310" height="26" as="geometry" />
        </mxCell>
        <mxCell id="iYLA2cjFfp99bQqYAzTN-24" style="edgeStyle=orthogonalEdgeStyle;rounded=0;orthogonalLoop=1;jettySize=auto;html=1;jumpStyle=arc;jumpSize=10;" parent="WIyWlLk6GJQsqaUBKTNV-1" source="6s5vhWPi2oBte4bEisQO-79" target="6s5vhWPi2oBte4bEisQO-55" edge="1">
          <mxGeometry relative="1" as="geometry">
            <Array as="points">
              <mxPoint x="1080" y="1723" />
              <mxPoint x="1080" y="1910" />
              <mxPoint x="1390" y="1910" />
              <mxPoint x="1390" y="1570" />
            </Array>
          </mxGeometry>
        </mxCell>
        <mxCell id="cIcH_N4xVWaxeV6_vvsU-0" value="Status Lookup Table" style="swimlane;fontStyle=0;childLayout=stackLayout;horizontal=1;startSize=26;fillColor=none;horizontalStack=0;resizeParent=1;resizeParentMax=0;resizeLast=0;collapsible=1;marginBottom=0;whiteSpace=wrap;html=1;" parent="WIyWlLk6GJQsqaUBKTNV-1" vertex="1">
          <mxGeometry x="90" y="1920" width="140" height="78" as="geometry" />
        </mxCell>
        <mxCell id="cIcH_N4xVWaxeV6_vvsU-1" value="statusID: string [PK]" style="text;strokeColor=none;fillColor=none;align=left;verticalAlign=top;spacingLeft=4;spacingRight=4;overflow=hidden;rotatable=0;points=[[0,0.5],[1,0.5]];portConstraint=eastwest;whiteSpace=wrap;html=1;" parent="cIcH_N4xVWaxeV6_vvsU-0" vertex="1">
          <mxGeometry y="26" width="140" height="26" as="geometry" />
        </mxCell>
        <mxCell id="cIcH_N4xVWaxeV6_vvsU-2" value="statusName: string" style="text;strokeColor=none;fillColor=none;align=left;verticalAlign=top;spacingLeft=4;spacingRight=4;overflow=hidden;rotatable=0;points=[[0,0.5],[1,0.5]];portConstraint=eastwest;whiteSpace=wrap;html=1;" parent="cIcH_N4xVWaxeV6_vvsU-0" vertex="1">
          <mxGeometry y="52" width="140" height="26" as="geometry" />
        </mxCell>
        <mxCell id="cIcH_N4xVWaxeV6_vvsU-4" style="edgeStyle=orthogonalEdgeStyle;rounded=0;orthogonalLoop=1;jettySize=auto;html=1;exitX=1;exitY=0.5;exitDx=0;exitDy=0;entryX=0.5;entryY=0;entryDx=0;entryDy=0;jumpStyle=arc;jumpSize=10;" parent="WIyWlLk6GJQsqaUBKTNV-1" source="6s5vhWPi2oBte4bEisQO-189" target="cIcH_N4xVWaxeV6_vvsU-0" edge="1">
          <mxGeometry relative="1" as="geometry">
            <mxPoint x="240" y="1850" as="targetPoint" />
            <Array as="points">
              <mxPoint x="230" y="1387" />
              <mxPoint x="230" y="1870" />
              <mxPoint x="160" y="1870" />
            </Array>
          </mxGeometry>
        </mxCell>
        <mxCell id="iXaf-DERiKh6bUlAR3Fj-0" value="SupplyInventory" style="swimlane;fontStyle=0;childLayout=stackLayout;horizontal=1;startSize=26;fillColor=none;horizontalStack=0;resizeParent=1;resizeParentMax=0;resizeLast=0;collapsible=1;marginBottom=0;whiteSpace=wrap;html=1;strokeColor=#66B2FF;" parent="WIyWlLk6GJQsqaUBKTNV-1" vertex="1">
          <mxGeometry x="1454" y="1676" width="200" height="182" as="geometry" />
        </mxCell>
        <mxCell id="iXaf-DERiKh6bUlAR3Fj-1" value="supplyID: string [PK]" style="text;strokeColor=none;fillColor=none;align=left;verticalAlign=top;spacingLeft=4;spacingRight=4;overflow=hidden;rotatable=0;points=[[0,0.5],[1,0.5]];portConstraint=eastwest;whiteSpace=wrap;html=1;" parent="iXaf-DERiKh6bUlAR3Fj-0" vertex="1">
          <mxGeometry y="26" width="200" height="26" as="geometry" />
        </mxCell>
        <mxCell id="iXaf-DERiKh6bUlAR3Fj-2" value="itemName: string" style="text;strokeColor=none;fillColor=none;align=left;verticalAlign=top;spacingLeft=4;spacingRight=4;overflow=hidden;rotatable=0;points=[[0,0.5],[1,0.5]];portConstraint=eastwest;whiteSpace=wrap;html=1;" parent="iXaf-DERiKh6bUlAR3Fj-0" vertex="1">
          <mxGeometry y="52" width="200" height="26" as="geometry" />
        </mxCell>
        <mxCell id="iXaf-DERiKh6bUlAR3Fj-3" value="description: string" style="text;strokeColor=none;fillColor=none;align=left;verticalAlign=top;spacingLeft=4;spacingRight=4;overflow=hidden;rotatable=0;points=[[0,0.5],[1,0.5]];portConstraint=eastwest;whiteSpace=wrap;html=1;" parent="iXaf-DERiKh6bUlAR3Fj-0" vertex="1">
          <mxGeometry y="78" width="200" height="26" as="geometry" />
        </mxCell>
        <mxCell id="iXaf-DERiKh6bUlAR3Fj-4" value="quantity: int" style="text;strokeColor=none;fillColor=none;align=left;verticalAlign=top;spacingLeft=4;spacingRight=4;overflow=hidden;rotatable=0;points=[[0,0.5],[1,0.5]];portConstraint=eastwest;whiteSpace=wrap;html=1;" parent="iXaf-DERiKh6bUlAR3Fj-0" vertex="1">
          <mxGeometry y="104" width="200" height="26" as="geometry" />
        </mxCell>
        <mxCell id="iXaf-DERiKh6bUlAR3Fj-5" value="quantityUnit: string" style="text;strokeColor=none;fillColor=none;align=left;verticalAlign=top;spacingLeft=4;spacingRight=4;overflow=hidden;rotatable=0;points=[[0,0.5],[1,0.5]];portConstraint=eastwest;whiteSpace=wrap;html=1;" parent="iXaf-DERiKh6bUlAR3Fj-0" vertex="1">
          <mxGeometry y="130" width="200" height="26" as="geometry" />
        </mxCell>
        <mxCell id="iXaf-DERiKh6bUlAR3Fj-6" value="unitPrice: float" style="text;strokeColor=none;fillColor=none;align=left;verticalAlign=top;spacingLeft=4;spacingRight=4;overflow=hidden;rotatable=0;points=[[0,0.5],[1,0.5]];portConstraint=eastwest;whiteSpace=wrap;html=1;" parent="iXaf-DERiKh6bUlAR3Fj-0" vertex="1">
          <mxGeometry y="156" width="200" height="26" as="geometry" />
        </mxCell>
        <mxCell id="iXaf-DERiKh6bUlAR3Fj-7" style="edgeStyle=orthogonalEdgeStyle;rounded=0;orthogonalLoop=1;jettySize=auto;html=1;jumpStyle=arc;jumpSize=10;strokeColor=#FF9999;" parent="WIyWlLk6GJQsqaUBKTNV-1" source="6s5vhWPi2oBte4bEisQO-33" target="iXaf-DERiKh6bUlAR3Fj-1" edge="1">
          <mxGeometry relative="1" as="geometry" />
        </mxCell>
        <mxCell id="XNJbn17Z0ETbCCURGHxT-0" value="Payroll" style="swimlane;fontStyle=0;childLayout=stackLayout;horizontal=1;startSize=26;fillColor=none;horizontalStack=0;resizeParent=1;resizeParentMax=0;resizeLast=0;collapsible=1;marginBottom=0;whiteSpace=wrap;html=1;strokeColor=#66B2FF;" parent="WIyWlLk6GJQsqaUBKTNV-1" vertex="1">
          <mxGeometry x="546.25" y="1738" width="205" height="442" as="geometry" />
        </mxCell>
        <mxCell id="XNJbn17Z0ETbCCURGHxT-1" value="paymentID: string [PK]" style="text;strokeColor=none;fillColor=none;align=left;verticalAlign=top;spacingLeft=4;spacingRight=4;overflow=hidden;rotatable=0;points=[[0,0.5],[1,0.5]];portConstraint=eastwest;whiteSpace=wrap;html=1;" parent="XNJbn17Z0ETbCCURGHxT-0" vertex="1">
          <mxGeometry y="26" width="205" height="26" as="geometry" />
        </mxCell>
        <mxCell id="XNJbn17Z0ETbCCURGHxT-2" value="date: date" style="text;strokeColor=none;fillColor=none;align=left;verticalAlign=top;spacingLeft=4;spacingRight=4;overflow=hidden;rotatable=0;points=[[0,0.5],[1,0.5]];portConstraint=eastwest;whiteSpace=wrap;html=1;" parent="XNJbn17Z0ETbCCURGHxT-0" vertex="1">
          <mxGeometry y="52" width="205" height="26" as="geometry" />
        </mxCell>
        <mxCell id="XNJbn17Z0ETbCCURGHxT-3" value="staffID:string [FK]" style="text;strokeColor=none;fillColor=none;align=left;verticalAlign=top;spacingLeft=4;spacingRight=4;overflow=hidden;rotatable=0;points=[[0,0.5],[1,0.5]];portConstraint=eastwest;whiteSpace=wrap;html=1;" parent="XNJbn17Z0ETbCCURGHxT-0" vertex="1">
          <mxGeometry y="78" width="205" height="26" as="geometry" />
        </mxCell>
        <mxCell id="XNJbn17Z0ETbCCURGHxT-4" value="payType: string [FK]" style="text;strokeColor=none;fillColor=none;align=left;verticalAlign=top;spacingLeft=4;spacingRight=4;overflow=hidden;rotatable=0;points=[[0,0.5],[1,0.5]];portConstraint=eastwest;whiteSpace=wrap;html=1;shadow=0;" parent="XNJbn17Z0ETbCCURGHxT-0" vertex="1">
          <mxGeometry y="104" width="205" height="26" as="geometry" />
        </mxCell>
        <mxCell id="XNJbn17Z0ETbCCURGHxT-5" value="staffTIN: string" style="text;strokeColor=none;fillColor=none;align=left;verticalAlign=top;spacingLeft=4;spacingRight=4;overflow=hidden;rotatable=0;points=[[0,0.5],[1,0.5]];portConstraint=eastwest;whiteSpace=wrap;html=1;" parent="XNJbn17Z0ETbCCURGHxT-0" vertex="1">
          <mxGeometry y="130" width="205" height="26" as="geometry" />
        </mxCell>
        <mxCell id="XNJbn17Z0ETbCCURGHxT-6" value="grossWages: float" style="text;strokeColor=none;fillColor=none;align=left;verticalAlign=top;spacingLeft=4;spacingRight=4;overflow=hidden;rotatable=0;points=[[0,0.5],[1,0.5]];portConstraint=eastwest;whiteSpace=wrap;html=1;" parent="XNJbn17Z0ETbCCURGHxT-0" vertex="1">
          <mxGeometry y="156" width="205" height="26" as="geometry" />
        </mxCell>
        <mxCell id="XNJbn17Z0ETbCCURGHxT-7" value="socialTaxableWages: float" style="text;strokeColor=none;fillColor=none;align=left;verticalAlign=top;spacingLeft=4;spacingRight=4;overflow=hidden;rotatable=0;points=[[0,0.5],[1,0.5]];portConstraint=eastwest;whiteSpace=wrap;html=1;" parent="XNJbn17Z0ETbCCURGHxT-0" vertex="1">
          <mxGeometry y="182" width="205" height="26" as="geometry" />
        </mxCell>
        <mxCell id="XNJbn17Z0ETbCCURGHxT-8" value="socialTax: float" style="text;strokeColor=none;fillColor=none;align=left;verticalAlign=top;spacingLeft=4;spacingRight=4;overflow=hidden;rotatable=0;points=[[0,0.5],[1,0.5]];portConstraint=eastwest;whiteSpace=wrap;html=1;" parent="XNJbn17Z0ETbCCURGHxT-0" vertex="1">
          <mxGeometry y="208" width="205" height="26" as="geometry" />
        </mxCell>
        <mxCell id="XNJbn17Z0ETbCCURGHxT-9" value="medicareTaxableWages: float" style="text;strokeColor=none;fillColor=none;align=left;verticalAlign=top;spacingLeft=4;spacingRight=4;overflow=hidden;rotatable=0;points=[[0,0.5],[1,0.5]];portConstraint=eastwest;whiteSpace=wrap;html=1;" parent="XNJbn17Z0ETbCCURGHxT-0" vertex="1">
          <mxGeometry y="234" width="205" height="26" as="geometry" />
        </mxCell>
        <mxCell id="XNJbn17Z0ETbCCURGHxT-10" value="medicareTax: float" style="text;strokeColor=none;fillColor=none;align=left;verticalAlign=top;spacingLeft=4;spacingRight=4;overflow=hidden;rotatable=0;points=[[0,0.5],[1,0.5]];portConstraint=eastwest;whiteSpace=wrap;html=1;" parent="XNJbn17Z0ETbCCURGHxT-0" vertex="1">
          <mxGeometry y="260" width="205" height="26" as="geometry" />
        </mxCell>
        <mxCell id="XNJbn17Z0ETbCCURGHxT-11" value="localTaxableWages: float" style="text;strokeColor=none;fillColor=none;align=left;verticalAlign=top;spacingLeft=4;spacingRight=4;overflow=hidden;rotatable=0;points=[[0,0.5],[1,0.5]];portConstraint=eastwest;whiteSpace=wrap;html=1;" parent="XNJbn17Z0ETbCCURGHxT-0" vertex="1">
          <mxGeometry y="286" width="205" height="26" as="geometry" />
        </mxCell>
        <mxCell id="XNJbn17Z0ETbCCURGHxT-12" value="localTax: float" style="text;strokeColor=none;fillColor=none;align=left;verticalAlign=top;spacingLeft=4;spacingRight=4;overflow=hidden;rotatable=0;points=[[0,0.5],[1,0.5]];portConstraint=eastwest;whiteSpace=wrap;html=1;" parent="XNJbn17Z0ETbCCURGHxT-0" vertex="1">
          <mxGeometry y="312" width="205" height="26" as="geometry" />
        </mxCell>
        <mxCell id="XNJbn17Z0ETbCCURGHxT-13" value="localName: string" style="text;strokeColor=none;fillColor=none;align=left;verticalAlign=top;spacingLeft=4;spacingRight=4;overflow=hidden;rotatable=0;points=[[0,0.5],[1,0.5]];portConstraint=eastwest;whiteSpace=wrap;html=1;" parent="XNJbn17Z0ETbCCURGHxT-0" vertex="1">
          <mxGeometry y="338" width="205" height="26" as="geometry" />
        </mxCell>
        <mxCell id="XNJbn17Z0ETbCCURGHxT-14" value="stateTaxableWages: float" style="text;strokeColor=none;fillColor=none;align=left;verticalAlign=top;spacingLeft=4;spacingRight=4;overflow=hidden;rotatable=0;points=[[0,0.5],[1,0.5]];portConstraint=eastwest;whiteSpace=wrap;html=1;" parent="XNJbn17Z0ETbCCURGHxT-0" vertex="1">
          <mxGeometry y="364" width="205" height="26" as="geometry" />
        </mxCell>
        <mxCell id="XNJbn17Z0ETbCCURGHxT-15" value="stateTax: float" style="text;strokeColor=none;fillColor=none;align=left;verticalAlign=top;spacingLeft=4;spacingRight=4;overflow=hidden;rotatable=0;points=[[0,0.5],[1,0.5]];portConstraint=eastwest;whiteSpace=wrap;html=1;" parent="XNJbn17Z0ETbCCURGHxT-0" vertex="1">
          <mxGeometry y="390" width="205" height="26" as="geometry" />
        </mxCell>
        <mxCell id="XNJbn17Z0ETbCCURGHxT-16" value="fedTax: float" style="text;strokeColor=none;fillColor=none;align=left;verticalAlign=top;spacingLeft=4;spacingRight=4;overflow=hidden;rotatable=0;points=[[0,0.5],[1,0.5]];portConstraint=eastwest;whiteSpace=wrap;html=1;" parent="XNJbn17Z0ETbCCURGHxT-0" vertex="1">
          <mxGeometry y="416" width="205" height="26" as="geometry" />
        </mxCell>
        <mxCell id="XNJbn17Z0ETbCCURGHxT-25" style="edgeStyle=orthogonalEdgeStyle;rounded=0;orthogonalLoop=1;jettySize=auto;html=1;entryX=0.25;entryY=0;entryDx=0;entryDy=0;jumpStyle=arc;jumpSize=10;endArrow=none;endFill=0;" parent="WIyWlLk6GJQsqaUBKTNV-1" source="6s5vhWPi2oBte4bEisQO-139" target="cIcH_N4xVWaxeV6_vvsU-0" edge="1">
          <mxGeometry relative="1" as="geometry">
            <Array as="points">
              <mxPoint x="125" y="1770" />
              <mxPoint x="125" y="1770" />
            </Array>
          </mxGeometry>
        </mxCell>
        <mxCell id="XNJbn17Z0ETbCCURGHxT-28" value="Pay Type Lookup Table" style="swimlane;fontStyle=0;childLayout=stackLayout;horizontal=1;startSize=26;fillColor=none;horizontalStack=0;resizeParent=1;resizeParentMax=0;resizeLast=0;collapsible=1;marginBottom=0;whiteSpace=wrap;html=1;strokeColor=#66B2FF;" parent="WIyWlLk6GJQsqaUBKTNV-1" vertex="1">
          <mxGeometry x="312" y="2020" width="156" height="104" as="geometry" />
        </mxCell>
        <mxCell id="XNJbn17Z0ETbCCURGHxT-29" value="payTypeID: string [PK]" style="text;strokeColor=none;fillColor=none;align=left;verticalAlign=top;spacingLeft=4;spacingRight=4;overflow=hidden;rotatable=0;points=[[0,0.5],[1,0.5]];portConstraint=eastwest;whiteSpace=wrap;html=1;" parent="XNJbn17Z0ETbCCURGHxT-28" vertex="1">
          <mxGeometry y="26" width="156" height="26" as="geometry" />
        </mxCell>
        <mxCell id="XNJbn17Z0ETbCCURGHxT-30" value="paymentType: string" style="text;strokeColor=none;fillColor=none;align=left;verticalAlign=top;spacingLeft=4;spacingRight=4;overflow=hidden;rotatable=0;points=[[0,0.5],[1,0.5]];portConstraint=eastwest;whiteSpace=wrap;html=1;" parent="XNJbn17Z0ETbCCURGHxT-28" vertex="1">
          <mxGeometry y="52" width="156" height="26" as="geometry" />
        </mxCell>
        <mxCell id="XNJbn17Z0ETbCCURGHxT-31" value="taxDocumentType: string" style="text;strokeColor=none;fillColor=none;align=left;verticalAlign=top;spacingLeft=4;spacingRight=4;overflow=hidden;rotatable=0;points=[[0,0.5],[1,0.5]];portConstraint=eastwest;whiteSpace=wrap;html=1;" parent="XNJbn17Z0ETbCCURGHxT-28" vertex="1">
          <mxGeometry y="78" width="156" height="26" as="geometry" />
        </mxCell>
        <mxCell id="_RMVuCj_aNO2bqz8egUr-0" style="edgeStyle=orthogonalEdgeStyle;rounded=0;orthogonalLoop=1;jettySize=auto;html=1;fillColor=#dae8fc;strokeColor=#6c8ebf;" parent="WIyWlLk6GJQsqaUBKTNV-1" source="XNJbn17Z0ETbCCURGHxT-29" target="XNJbn17Z0ETbCCURGHxT-4" edge="1">
          <mxGeometry relative="1" as="geometry" />
        </mxCell>
        <mxCell id="_RMVuCj_aNO2bqz8egUr-1" style="edgeStyle=orthogonalEdgeStyle;rounded=0;orthogonalLoop=1;jettySize=auto;html=1;fillColor=#dae8fc;strokeColor=#6c8ebf;jumpStyle=arc;jumpSize=10;" parent="WIyWlLk6GJQsqaUBKTNV-1" source="XNJbn17Z0ETbCCURGHxT-29" target="XNJbn17Z0ETbCCURGHxT-19" edge="1">
          <mxGeometry relative="1" as="geometry">
            <Array as="points">
              <mxPoint x="290" y="2059" />
            </Array>
          </mxGeometry>
        </mxCell>
        <mxCell id="_RMVuCj_aNO2bqz8egUr-2" value="Purchase Orders" style="swimlane;fontStyle=0;childLayout=stackLayout;horizontal=1;startSize=26;fillColor=none;horizontalStack=0;resizeParent=1;resizeParentMax=0;resizeLast=0;collapsible=1;marginBottom=0;whiteSpace=wrap;html=1;strokeColor=#66B2FF;" parent="WIyWlLk6GJQsqaUBKTNV-1" vertex="1">
          <mxGeometry x="1700" y="1850" width="200" height="234" as="geometry" />
        </mxCell>
        <mxCell id="_RMVuCj_aNO2bqz8egUr-3" value="orderID: string [PK]" style="text;strokeColor=none;fillColor=none;align=left;verticalAlign=top;spacingLeft=4;spacingRight=4;overflow=hidden;rotatable=0;points=[[0,0.5],[1,0.5]];portConstraint=eastwest;whiteSpace=wrap;html=1;" parent="_RMVuCj_aNO2bqz8egUr-2" vertex="1">
          <mxGeometry y="26" width="200" height="26" as="geometry" />
        </mxCell>
        <mxCell id="_RMVuCj_aNO2bqz8egUr-4" value="date: date" style="text;strokeColor=none;fillColor=none;align=left;verticalAlign=top;spacingLeft=4;spacingRight=4;overflow=hidden;rotatable=0;points=[[0,0.5],[1,0.5]];portConstraint=eastwest;whiteSpace=wrap;html=1;" parent="_RMVuCj_aNO2bqz8egUr-2" vertex="1">
          <mxGeometry y="52" width="200" height="26" as="geometry" />
        </mxCell>
        <mxCell id="_RMVuCj_aNO2bqz8egUr-5" value="supplyCode: string [FK]" style="text;strokeColor=none;fillColor=none;align=left;verticalAlign=top;spacingLeft=4;spacingRight=4;overflow=hidden;rotatable=0;points=[[0,0.5],[1,0.5]];portConstraint=eastwest;whiteSpace=wrap;html=1;" parent="_RMVuCj_aNO2bqz8egUr-2" vertex="1">
          <mxGeometry y="78" width="200" height="26" as="geometry" />
        </mxCell>
        <mxCell id="_RMVuCj_aNO2bqz8egUr-6" value="quantity: int" style="text;strokeColor=none;fillColor=none;align=left;verticalAlign=top;spacingLeft=4;spacingRight=4;overflow=hidden;rotatable=0;points=[[0,0.5],[1,0.5]];portConstraint=eastwest;whiteSpace=wrap;html=1;" parent="_RMVuCj_aNO2bqz8egUr-2" vertex="1">
          <mxGeometry y="104" width="200" height="26" as="geometry" />
        </mxCell>
        <mxCell id="_RMVuCj_aNO2bqz8egUr-7" value="quantityUnit: string" style="text;strokeColor=none;fillColor=none;align=left;verticalAlign=top;spacingLeft=4;spacingRight=4;overflow=hidden;rotatable=0;points=[[0,0.5],[1,0.5]];portConstraint=eastwest;whiteSpace=wrap;html=1;" parent="_RMVuCj_aNO2bqz8egUr-2" vertex="1">
          <mxGeometry y="130" width="200" height="26" as="geometry" />
        </mxCell>
        <mxCell id="_RMVuCj_aNO2bqz8egUr-8" value="unitPrice: float" style="text;strokeColor=none;fillColor=none;align=left;verticalAlign=top;spacingLeft=4;spacingRight=4;overflow=hidden;rotatable=0;points=[[0,0.5],[1,0.5]];portConstraint=eastwest;whiteSpace=wrap;html=1;" parent="_RMVuCj_aNO2bqz8egUr-2" vertex="1">
          <mxGeometry y="156" width="200" height="26" as="geometry" />
        </mxCell>
        <mxCell id="_RMVuCj_aNO2bqz8egUr-9" value="totalPrice: float" style="text;strokeColor=none;fillColor=none;align=left;verticalAlign=top;spacingLeft=4;spacingRight=4;overflow=hidden;rotatable=0;points=[[0,0.5],[1,0.5]];portConstraint=eastwest;whiteSpace=wrap;html=1;" parent="_RMVuCj_aNO2bqz8egUr-2" vertex="1">
          <mxGeometry y="182" width="200" height="26" as="geometry" />
        </mxCell>
        <mxCell id="_RMVuCj_aNO2bqz8egUr-10" value="status: string [FK]" style="text;strokeColor=none;fillColor=none;align=left;verticalAlign=top;spacingLeft=4;spacingRight=4;overflow=hidden;rotatable=0;points=[[0,0.5],[1,0.5]];portConstraint=eastwest;whiteSpace=wrap;html=1;" parent="_RMVuCj_aNO2bqz8egUr-2" vertex="1">
          <mxGeometry y="208" width="200" height="26" as="geometry" />
        </mxCell>
        <mxCell id="_RMVuCj_aNO2bqz8egUr-11" value="Work Orders" style="swimlane;fontStyle=0;childLayout=stackLayout;horizontal=1;startSize=26;fillColor=none;horizontalStack=0;resizeParent=1;resizeParentMax=0;resizeLast=0;collapsible=1;marginBottom=0;whiteSpace=wrap;html=1;strokeColor=#66B2FF;" parent="WIyWlLk6GJQsqaUBKTNV-1" vertex="1">
          <mxGeometry x="1450" y="1890" width="200" height="260" as="geometry" />
        </mxCell>
        <mxCell id="_RMVuCj_aNO2bqz8egUr-12" value="orderID: string [PK]" style="text;strokeColor=none;fillColor=none;align=left;verticalAlign=top;spacingLeft=4;spacingRight=4;overflow=hidden;rotatable=0;points=[[0,0.5],[1,0.5]];portConstraint=eastwest;whiteSpace=wrap;html=1;" parent="_RMVuCj_aNO2bqz8egUr-11" vertex="1">
          <mxGeometry y="26" width="200" height="26" as="geometry" />
        </mxCell>
        <mxCell id="_RMVuCj_aNO2bqz8egUr-13" value="date: date" style="text;strokeColor=none;fillColor=none;align=left;verticalAlign=top;spacingLeft=4;spacingRight=4;overflow=hidden;rotatable=0;points=[[0,0.5],[1,0.5]];portConstraint=eastwest;whiteSpace=wrap;html=1;" parent="_RMVuCj_aNO2bqz8egUr-11" vertex="1">
          <mxGeometry y="52" width="200" height="26" as="geometry" />
        </mxCell>
        <mxCell id="_RMVuCj_aNO2bqz8egUr-14" value="supplyCode: string [FK]" style="text;strokeColor=none;fillColor=none;align=left;verticalAlign=top;spacingLeft=4;spacingRight=4;overflow=hidden;rotatable=0;points=[[0,0.5],[1,0.5]];portConstraint=eastwest;whiteSpace=wrap;html=1;" parent="_RMVuCj_aNO2bqz8egUr-11" vertex="1">
          <mxGeometry y="78" width="200" height="26" as="geometry" />
        </mxCell>
        <mxCell id="_RMVuCj_aNO2bqz8egUr-16" value="description: string" style="text;strokeColor=none;fillColor=none;align=left;verticalAlign=top;spacingLeft=4;spacingRight=4;overflow=hidden;rotatable=0;points=[[0,0.5],[1,0.5]];portConstraint=eastwest;whiteSpace=wrap;html=1;" parent="_RMVuCj_aNO2bqz8egUr-11" vertex="1">
          <mxGeometry y="104" width="200" height="26" as="geometry" />
        </mxCell>
        <mxCell id="_RMVuCj_aNO2bqz8egUr-17" value="serviceCompanyName: string" style="text;strokeColor=none;fillColor=none;align=left;verticalAlign=top;spacingLeft=4;spacingRight=4;overflow=hidden;rotatable=0;points=[[0,0.5],[1,0.5]];portConstraint=eastwest;whiteSpace=wrap;html=1;" parent="_RMVuCj_aNO2bqz8egUr-11" vertex="1">
          <mxGeometry y="130" width="200" height="26" as="geometry" />
        </mxCell>
        <mxCell id="_RMVuCj_aNO2bqz8egUr-18" value="serviceTechnicianName: string" style="text;strokeColor=none;fillColor=none;align=left;verticalAlign=top;spacingLeft=4;spacingRight=4;overflow=hidden;rotatable=0;points=[[0,0.5],[1,0.5]];portConstraint=eastwest;whiteSpace=wrap;html=1;" parent="_RMVuCj_aNO2bqz8egUr-11" vertex="1">
          <mxGeometry y="156" width="200" height="26" as="geometry" />
        </mxCell>
        <mxCell id="_RMVuCj_aNO2bqz8egUr-19" value="contact: string [FK]" style="text;strokeColor=none;fillColor=none;align=left;verticalAlign=top;spacingLeft=4;spacingRight=4;overflow=hidden;rotatable=0;points=[[0,0.5],[1,0.5]];portConstraint=eastwest;whiteSpace=wrap;html=1;" parent="_RMVuCj_aNO2bqz8egUr-11" vertex="1">
          <mxGeometry y="182" width="200" height="26" as="geometry" />
        </mxCell>
        <mxCell id="_RMVuCj_aNO2bqz8egUr-20" value="lastServiceDate: string" style="text;strokeColor=none;fillColor=none;align=left;verticalAlign=top;spacingLeft=4;spacingRight=4;overflow=hidden;rotatable=0;points=[[0,0.5],[1,0.5]];portConstraint=eastwest;whiteSpace=wrap;html=1;" parent="_RMVuCj_aNO2bqz8egUr-11" vertex="1">
          <mxGeometry y="208" width="200" height="26" as="geometry" />
        </mxCell>
        <mxCell id="_RMVuCj_aNO2bqz8egUr-15" value="status: string [FK]" style="text;strokeColor=none;fillColor=none;align=left;verticalAlign=top;spacingLeft=4;spacingRight=4;overflow=hidden;rotatable=0;points=[[0,0.5],[1,0.5]];portConstraint=eastwest;whiteSpace=wrap;html=1;" parent="_RMVuCj_aNO2bqz8egUr-11" vertex="1">
          <mxGeometry y="234" width="200" height="26" as="geometry" />
        </mxCell>
        <mxCell id="_RMVuCj_aNO2bqz8egUr-21" style="edgeStyle=orthogonalEdgeStyle;rounded=0;orthogonalLoop=1;jettySize=auto;html=1;fillColor=#dae8fc;strokeColor=#6c8ebf;jumpStyle=arc;jumpSize=10;" parent="WIyWlLk6GJQsqaUBKTNV-1" source="_RMVuCj_aNO2bqz8egUr-5" target="iXaf-DERiKh6bUlAR3Fj-1" edge="1">
          <mxGeometry relative="1" as="geometry">
            <Array as="points">
              <mxPoint x="1680" y="1931" />
              <mxPoint x="1680" y="1710" />
            </Array>
          </mxGeometry>
        </mxCell>
        <mxCell id="_RMVuCj_aNO2bqz8egUr-22" style="edgeStyle=orthogonalEdgeStyle;rounded=0;orthogonalLoop=1;jettySize=auto;html=1;fillColor=#dae8fc;strokeColor=#6c8ebf;jumpStyle=arc;jumpSize=10;" parent="WIyWlLk6GJQsqaUBKTNV-1" source="_RMVuCj_aNO2bqz8egUr-14" target="iXaf-DERiKh6bUlAR3Fj-1" edge="1">
          <mxGeometry relative="1" as="geometry">
            <Array as="points">
              <mxPoint x="1670" y="1981" />
              <mxPoint x="1670" y="1720" />
            </Array>
          </mxGeometry>
        </mxCell>
        <mxCell id="_RMVuCj_aNO2bqz8egUr-23" style="edgeStyle=orthogonalEdgeStyle;rounded=0;orthogonalLoop=1;jettySize=auto;html=1;fillColor=#dae8fc;strokeColor=#6c8ebf;jumpStyle=arc;jumpSize=10;" parent="WIyWlLk6GJQsqaUBKTNV-1" source="_RMVuCj_aNO2bqz8egUr-15" target="cIcH_N4xVWaxeV6_vvsU-0" edge="1">
          <mxGeometry relative="1" as="geometry">
            <Array as="points">
              <mxPoint x="1550" y="2190" />
              <mxPoint x="220" y="2190" />
            </Array>
          </mxGeometry>
        </mxCell>
        <mxCell id="_RMVuCj_aNO2bqz8egUr-24" style="edgeStyle=orthogonalEdgeStyle;rounded=0;orthogonalLoop=1;jettySize=auto;html=1;fillColor=#dae8fc;strokeColor=#6c8ebf;jumpStyle=arc;jumpSize=10;" parent="WIyWlLk6GJQsqaUBKTNV-1" source="_RMVuCj_aNO2bqz8egUr-10" target="cIcH_N4xVWaxeV6_vvsU-0" edge="1">
          <mxGeometry relative="1" as="geometry">
            <Array as="points">
              <mxPoint x="1830" y="2200" />
              <mxPoint x="200" y="2200" />
            </Array>
          </mxGeometry>
        </mxCell>
        <mxCell id="_RMVuCj_aNO2bqz8egUr-26" style="edgeStyle=orthogonalEdgeStyle;rounded=0;orthogonalLoop=1;jettySize=auto;html=1;fillColor=#dae8fc;strokeColor=#6c8ebf;jumpStyle=arc;jumpSize=10;" parent="WIyWlLk6GJQsqaUBKTNV-1" source="_RMVuCj_aNO2bqz8egUr-19" target="6s5vhWPi2oBte4bEisQO-4" edge="1">
          <mxGeometry relative="1" as="geometry" />
        </mxCell>
        <mxCell id="_RMVuCj_aNO2bqz8egUr-46" style="edgeStyle=orthogonalEdgeStyle;rounded=0;orthogonalLoop=1;jettySize=auto;html=1;startArrow=block;startFill=1;endArrow=none;endFill=0;fillColor=#dae8fc;strokeColor=#6c8ebf;jumpStyle=arc;jumpSize=10;" parent="WIyWlLk6GJQsqaUBKTNV-1" source="_RMVuCj_aNO2bqz8egUr-32" target="6s5vhWPi2oBte4bEisQO-0" edge="1">
          <mxGeometry relative="1" as="geometry">
            <Array as="points">
              <mxPoint x="-80" y="1741" />
              <mxPoint x="-80" y="1683" />
            </Array>
          </mxGeometry>
        </mxCell>
        <mxCell id="_RMVuCj_aNO2bqz8egUr-47" value="Inheritance" style="edgeLabel;html=1;align=center;verticalAlign=middle;resizable=0;points=[];" parent="_RMVuCj_aNO2bqz8egUr-46" vertex="1" connectable="0">
          <mxGeometry x="0.0675" y="3" relative="1" as="geometry">
            <mxPoint as="offset" />
          </mxGeometry>
        </mxCell>
        <mxCell id="_RMVuCj_aNO2bqz8egUr-32" value="Person" style="swimlane;fontStyle=0;childLayout=stackLayout;horizontal=1;startSize=26;fillColor=none;horizontalStack=0;resizeParent=1;resizeParentMax=0;resizeLast=0;collapsible=1;marginBottom=0;whiteSpace=wrap;html=1;" parent="WIyWlLk6GJQsqaUBKTNV-1" vertex="1">
          <mxGeometry x="-315" y="1650" width="195" height="182" as="geometry" />
        </mxCell>
        <mxCell id="_RMVuCj_aNO2bqz8egUr-33" value="personID: string [PK]" style="text;strokeColor=none;fillColor=none;align=left;verticalAlign=top;spacingLeft=4;spacingRight=4;overflow=hidden;rotatable=0;points=[[0,0.5],[1,0.5]];portConstraint=eastwest;whiteSpace=wrap;html=1;" parent="_RMVuCj_aNO2bqz8egUr-32" vertex="1">
          <mxGeometry y="26" width="195" height="26" as="geometry" />
        </mxCell>
        <mxCell id="_RMVuCj_aNO2bqz8egUr-44" value="&lt;font color=&quot;#66b2ff&quot;&gt;lastName: string&lt;/font&gt;" style="text;align=left;verticalAlign=top;spacingLeft=4;spacingRight=4;overflow=hidden;rotatable=0;points=[[0,0.5],[1,0.5]];portConstraint=eastwest;whiteSpace=wrap;html=1;" parent="_RMVuCj_aNO2bqz8egUr-32" vertex="1">
          <mxGeometry y="52" width="195" height="26" as="geometry" />
        </mxCell>
        <mxCell id="_RMVuCj_aNO2bqz8egUr-45" value="&lt;font color=&quot;#3399ff&quot;&gt;firstName: string&lt;/font&gt;" style="text;strokeColor=none;fillColor=none;align=left;verticalAlign=top;spacingLeft=4;spacingRight=4;overflow=hidden;rotatable=0;points=[[0,0.5],[1,0.5]];portConstraint=eastwest;whiteSpace=wrap;html=1;" parent="_RMVuCj_aNO2bqz8egUr-32" vertex="1">
          <mxGeometry y="78" width="195" height="26" as="geometry" />
        </mxCell>
        <mxCell id="_RMVuCj_aNO2bqz8egUr-35" value="homeAddress: string [FK]" style="text;strokeColor=none;fillColor=none;align=left;verticalAlign=top;spacingLeft=4;spacingRight=4;overflow=hidden;rotatable=0;points=[[0,0.5],[1,0.5]];portConstraint=eastwest;whiteSpace=wrap;html=1;" parent="_RMVuCj_aNO2bqz8egUr-32" vertex="1">
          <mxGeometry y="104" width="195" height="26" as="geometry" />
        </mxCell>
        <mxCell id="_RMVuCj_aNO2bqz8egUr-36" value="DOB: date" style="text;strokeColor=none;fillColor=none;align=left;verticalAlign=top;spacingLeft=4;spacingRight=4;overflow=hidden;rotatable=0;points=[[0,0.5],[1,0.5]];portConstraint=eastwest;whiteSpace=wrap;html=1;" parent="_RMVuCj_aNO2bqz8egUr-32" vertex="1">
          <mxGeometry y="130" width="195" height="26" as="geometry" />
        </mxCell>
        <mxCell id="_RMVuCj_aNO2bqz8egUr-37" value="SSN: string" style="text;strokeColor=none;fillColor=none;align=left;verticalAlign=top;spacingLeft=4;spacingRight=4;overflow=hidden;rotatable=0;points=[[0,0.5],[1,0.5]];portConstraint=eastwest;whiteSpace=wrap;html=1;" parent="_RMVuCj_aNO2bqz8egUr-32" vertex="1">
          <mxGeometry y="156" width="195" height="26" as="geometry" />
        </mxCell>
        <mxCell id="_RMVuCj_aNO2bqz8egUr-48" style="edgeStyle=orthogonalEdgeStyle;rounded=0;orthogonalLoop=1;jettySize=auto;html=1;endArrow=none;endFill=0;startArrow=block;startFill=1;fillColor=#dae8fc;strokeColor=#6c8ebf;jumpStyle=arc;jumpSize=10;" parent="WIyWlLk6GJQsqaUBKTNV-1" source="_RMVuCj_aNO2bqz8egUr-32" target="6s5vhWPi2oBte4bEisQO-77" edge="1">
          <mxGeometry relative="1" as="geometry">
            <mxPoint x="-110" y="1751" as="sourcePoint" />
            <mxPoint x="31" y="1693" as="targetPoint" />
            <Array as="points">
              <mxPoint x="-70" y="1751" />
              <mxPoint x="-70" y="1700" />
            </Array>
          </mxGeometry>
        </mxCell>
        <mxCell id="_RMVuCj_aNO2bqz8egUr-49" value="Inheritance" style="edgeLabel;html=1;align=center;verticalAlign=middle;resizable=0;points=[];" parent="_RMVuCj_aNO2bqz8egUr-48" vertex="1" connectable="0">
          <mxGeometry x="0.0675" y="3" relative="1" as="geometry">
            <mxPoint as="offset" />
          </mxGeometry>
        </mxCell>
        <mxCell id="_RMVuCj_aNO2bqz8egUr-50" style="edgeStyle=orthogonalEdgeStyle;rounded=0;orthogonalLoop=1;jettySize=auto;html=1;fillColor=#dae8fc;strokeColor=#6c8ebf;jumpStyle=arc;jumpSize=10;" parent="WIyWlLk6GJQsqaUBKTNV-1" source="_RMVuCj_aNO2bqz8egUr-35" target="6s5vhWPi2oBte4bEisQO-4" edge="1">
          <mxGeometry relative="1" as="geometry">
            <Array as="points">
              <mxPoint x="-110" y="1767" />
              <mxPoint x="-110" y="2230" />
              <mxPoint x="810" y="2230" />
            </Array>
          </mxGeometry>
        </mxCell>
      </root>
    </mxGraphModel>
  </diagram>
</mxfile>
